<svg data-v-fde0c5aa="" xmlns="http://www.w3.org/2000/svg" viewBox="0 0 300 300" class="icon"><!----><defs data-v-fde0c5aa=""><!----></defs><rect data-v-fde0c5aa="" fill="#3B1342" x="0" y="0" width="300px" height="300px" class="logo-background-square"></rect><!----><defs data-v-fde0c5aa=""><!----></defs><g data-v-fde0c5aa="" id="ccc1a216-3942-46f9-9ac8-6764a2714ea6" fill="#BF557B" stroke="none" transform="matrix(2.315743351637091,0,0,2.315743351637091,34.050821085186676,32.90442293694038)"><path d="M12.348 47.734a5.998 5.998 0 0 0-3.712-1.273 6.028 6.028 0 0 0-4.789 2.342 5.998 5.998 0 0 0-1.229 4.466 6.004 6.004 0 0 0 2.294 4.03 5.99 5.99 0 0 0 3.714 1.277 6.024 6.024 0 0 0 4.789-2.341 6.068 6.068 0 0 0-1.067-8.501zm-.162 7.546a4.495 4.495 0 0 1-3.558 1.738 4.493 4.493 0 0 1-2.76-.948 4.496 4.496 0 0 1-.791-6.312 4.495 4.495 0 0 1 3.559-1.739c.965 0 1.936.309 2.757.945a4.504 4.504 0 0 1 .793 6.316zM64.219 77.245a6.004 6.004 0 0 0-3.708-1.272 6.023 6.023 0 0 0-4.79 2.343 6.067 6.067 0 0 0 1.064 8.502 5.985 5.985 0 0 0 3.712 1.273 6.02 6.02 0 0 0 4.79-2.344 6.024 6.024 0 0 0 1.228-4.469 6.024 6.024 0 0 0-2.296-4.033zm-.163 7.547a4.49 4.49 0 0 1-3.558 1.742 4.485 4.485 0 0 1-2.756-.945 4.502 4.502 0 0 1 5.522-7.11 4.495 4.495 0 0 1 .792 6.313zM87.795 36.338a5.991 5.991 0 0 0 3.717 1.277 6.01 6.01 0 0 0 4.783-2.344 6.018 6.018 0 0 0 1.227-4.471 6.007 6.007 0 0 0-2.292-4.028 6.013 6.013 0 0 0-3.717-1.274c-1.886 0-3.63.854-4.784 2.341a6.003 6.003 0 0 0-1.229 4.466 6.022 6.022 0 0 0 2.295 4.033zm.164-7.544a4.483 4.483 0 0 1 3.554-1.738 4.5 4.5 0 0 1-.001 9.001 4.479 4.479 0 0 1-2.76-.95 4.497 4.497 0 0 1-.793-6.313zM15.053 15.383a6 6 0 0 0-1.226 4.465 6.012 6.012 0 0 0 2.295 4.03 5.986 5.986 0 0 0 3.71 1.275 6.036 6.036 0 0 0 4.792-2.341 6.07 6.07 0 0 0-1.071-8.5 5.988 5.988 0 0 0-3.713-1.273 6.016 6.016 0 0 0-4.787 2.344zm8.34 6.473a4.504 4.504 0 0 1-6.316.792 4.493 4.493 0 0 1-.794-6.311 4.483 4.483 0 0 1 3.556-1.741c.965 0 1.937.309 2.757.945a4.505 4.505 0 0 1 .797 6.315zM22.531 26.6a.7.7 0 0 0-.425.429c-.067.2-.04.42.073.599l8.512 13.248a.696.696 0 0 0 .754.297l3.973-1.011a.689.689 0 0 0 .474-.418.69.69 0 0 0-.061-.63l-9.213-14.34a.688.688 0 0 0-.584-.318.686.686 0 0 0-.497.21 7.907 7.907 0 0 1-3.006 1.934zM19.588 27.312a.69.69 0 0 0-.515-.312 8.073 8.073 0 0 1-3.396-1.138.697.697 0 0 0-.6-.062.686.686 0 0 0-.42.431L8.796 43.706a.691.691 0 0 0 .591.911 8.05 8.05 0 0 1 3.396 1.131.691.691 0 0 0 1.017-.372l5.863-17.467a.696.696 0 0 0-.075-.597z"></path><path d="M27.695 23.133l51.135 8.843-62.66 15.947a.694.694 0 0 0-.447.987 8.041 8.041 0 0 1 .866 3.471.692.692 0 0 0 .864.659l66.496-16.924a.696.696 0 0 0 .45-.983 7.947 7.947 0 0 1-.794-2.59 7.953 7.953 0 0 1 .589-4.128.69.69 0 0 0-.518-.957l-55.087-9.523a.693.693 0 0 0-.809.722 8.036 8.036 0 0 1-.605 3.526.692.692 0 0 0 .52.95zM89.348 39.511a.698.698 0 0 0-.427-.422 7.996 7.996 0 0 1-2.295-1.24 7.899 7.899 0 0 1-.738-.658.69.69 0 0 0-.571-.197.692.692 0 0 0-.51.327L62.722 73.479a.69.69 0 0 0 .367 1.017 8.003 8.003 0 0 1 2.302 1.241c.232.182.473.396.73.654a.692.692 0 0 0 1.083-.129l22.083-36.156a.696.696 0 0 0 .061-.595zM54.572 76.688c.035-.027.075-.043.106-.076a7.855 7.855 0 0 1 2.96-2.01.693.693 0 0 0 .335-1.024L42.789 49.941a.699.699 0 0 0-.755-.297l-3.972 1.013a.693.693 0 0 0-.414 1.047l14.728 22.928-35.138-20.146a.7.7 0 0 0-.601-.043.693.693 0 0 0-.407.44 7.928 7.928 0 0 1-1.308 2.526 8.006 8.006 0 0 1-.493.563.693.693 0 0 0 .161 1.075l37.205 21.332a.688.688 0 0 0 .613.04.697.697 0 0 0 .402-.461 7.925 7.925 0 0 1 1.402-2.816c.054-.067.112-.132.17-.195l.125-.141c.032-.034.043-.078.065-.118z"></path></g><!----></svg>