<svg data-v-29081953="" xmlns="http://www.w3.org/2000/svg" viewBox="0 0 300 300"><!----><defs data-v-29081953=""><!----></defs><rect data-v-29081953="" fill="#EBFBFA" x="0" y="0" width="300px" height="300px" class="logo-background-square"></rect><defs data-v-29081953=""><!----></defs><g data-v-29081953="" id="d5d6b25b-3f48-4fb7-a6c0-a19427acd950" fill="#08403F" transform="matrix(3.745858159643963,0,0,3.745858159643963,14.755798665806669,174.3580185438485)"><path d="M9.35 2.13L9.35 2.13Q9.35 1.81 9.56 1.60L9.56 1.60L9.56 1.60Q9.77 1.40 10.08 1.40L10.08 1.40L10.08 1.40Q10.39 1.40 10.59 1.60L10.59 1.60L10.59 1.60Q10.79 1.81 10.79 2.13L10.79 2.13L10.79 11.61L10.79 11.61Q10.79 11.93 10.59 12.13L10.59 12.13L10.59 12.13Q10.39 12.33 10.08 12.33L10.08 12.33L10.08 12.33Q9.77 12.33 9.56 12.12L9.56 12.12L9.56 12.12Q9.35 11.91 9.35 11.61L9.35 11.61L9.35 7.43L2.86 7.43L2.86 11.61L2.86 11.61Q2.86 11.91 2.65 12.12L2.65 12.12L2.65 12.12Q2.45 12.33 2.13 12.33L2.13 12.33L2.13 12.33Q1.82 12.33 1.61 12.12L1.61 12.12L1.61 12.12Q1.40 11.91 1.40 11.61L1.40 11.61L1.40 2.13L1.40 2.13Q1.40 1.81 1.61 1.60L1.61 1.60L1.61 1.60Q1.82 1.40 2.13 1.40L2.13 1.40L2.13 1.40Q2.45 1.40 2.65 1.60L2.65 1.60L2.65 1.60Q2.86 1.81 2.86 2.13L2.86 2.13L2.86 6.15L9.35 6.15L9.35 2.13ZM19.77 4.66L19.77 4.66Q20.09 4.66 20.29 4.86L20.29 4.86L20.29 4.86Q20.48 5.05 20.48 5.38L20.48 5.38L20.48 11.62L20.48 11.62Q20.48 11.93 20.29 12.13L20.29 12.13L20.29 12.13Q20.09 12.33 19.77 12.33L19.77 12.33L19.77 12.33Q19.46 12.33 19.26 12.13L19.26 12.13L19.26 12.13Q19.05 11.93 19.05 11.62L19.05 11.62L19.05 11.47L19.05 11.47Q18.61 11.91 17.99 12.16L17.99 12.16L17.99 12.16Q17.37 12.40 16.67 12.40L16.67 12.40L16.67 12.40Q15.71 12.40 14.94 11.98L14.94 11.98L14.94 11.98Q14.17 11.56 13.73 10.76L13.73 10.76L13.73 10.76Q13.30 9.95 13.30 8.82L13.30 8.82L13.30 5.38L13.30 5.38Q13.30 5.07 13.50 4.86L13.50 4.86L13.50 4.86Q13.71 4.66 14.01 4.66L14.01 4.66L14.01 4.66Q14.32 4.66 14.53 4.86L14.53 4.86L14.53 4.86Q14.73 5.07 14.73 5.38L14.73 5.38L14.73 8.82L14.73 8.82Q14.73 9.95 15.34 10.54L15.34 10.54L15.34 10.54Q15.95 11.12 16.95 11.12L16.95 11.12L16.95 11.12Q17.54 11.12 18.03 10.88L18.03 10.88L18.03 10.88Q18.51 10.64 18.78 10.23L18.78 10.23L18.78 10.23Q19.05 9.83 19.05 9.32L19.05 9.32L19.05 5.38L19.05 5.38Q19.05 5.05 19.26 4.86L19.26 4.86L19.26 4.86Q19.46 4.66 19.77 4.66L19.77 4.66ZM23.72 1.40L23.72 1.40Q23.39 1.40 23.20 1.60L23.20 1.60L23.20 1.60Q23.00 1.79 23.00 2.11L23.00 2.11L23.00 8.50L23.00 8.50Q23.00 9.59 23.51 10.48L23.51 10.48L23.51 10.48Q24.02 11.37 24.90 11.88L24.90 11.88L24.90 11.88Q25.77 12.39 26.85 12.39L26.85 12.39L26.85 12.39Q27.93 12.39 28.82 11.88L28.82 11.88L28.82 11.88Q29.71 11.37 30.21 10.48L30.21 10.48L30.21 10.48Q30.72 9.59 30.72 8.50L30.72 8.50L30.72 8.50Q30.72 7.41 30.25 6.52L30.25 6.52L30.25 6.52Q29.78 5.63 28.96 5.12L28.96 5.12L28.96 5.12Q28.14 4.62 27.13 4.62L27.13 4.62L27.13 4.62Q26.32 4.62 25.62 4.96L25.62 4.96L25.62 4.96Q24.92 5.29 24.43 5.89L24.43 5.89L24.43 2.11L24.43 2.11Q24.43 1.79 24.23 1.60L24.23 1.60L24.23 1.60Q24.02 1.40 23.72 1.40L23.72 1.40ZM26.85 11.13L26.85 11.13Q26.15 11.13 25.59 10.79L25.59 10.79L25.59 10.79Q25.02 10.44 24.70 9.84L24.70 9.84L24.70 9.84Q24.37 9.24 24.37 8.50L24.37 8.50L24.37 8.50Q24.37 7.76 24.70 7.16L24.70 7.16L24.70 7.16Q25.02 6.57 25.59 6.22L25.59 6.22L25.59 6.22Q26.15 5.88 26.85 5.88L26.85 5.88L26.85 5.88Q27.55 5.88 28.12 6.22L28.12 6.22L28.12 6.22Q28.69 6.57 29.02 7.16L29.02 7.16L29.02 7.16Q29.34 7.76 29.34 8.50L29.34 8.50L29.34 8.50Q29.34 9.24 29.02 9.84L29.02 9.84L29.02 9.84Q28.69 10.44 28.12 10.79L28.12 10.79L28.12 10.79Q27.55 11.13 26.85 11.13L26.85 11.13ZM40.98 4.68L40.98 4.68Q41.27 4.68 41.42 4.83L41.42 4.83L41.42 4.83Q41.57 4.98 41.57 5.25L41.57 5.25L41.57 5.25Q41.57 5.47 41.50 5.66L41.50 5.66L39.42 11.87L39.42 11.87Q39.35 12.07 39.17 12.20L39.17 12.20L39.17 12.20Q38.99 12.33 38.77 12.33L38.77 12.33L38.77 12.33Q38.53 12.33 38.34 12.20L38.34 12.20L38.34 12.20Q38.15 12.07 38.09 11.87L38.09 11.87L36.72 6.79L35.28 11.87L35.28 11.87Q35.21 12.07 35.02 12.20L35.02 12.20L35.02 12.20Q34.83 12.33 34.61 12.33L34.61 12.33L34.61 12.33Q34.38 12.33 34.20 12.20L34.20 12.20L34.20 12.20Q34.01 12.07 33.94 11.87L33.94 11.87L31.86 5.66L31.86 5.66Q31.81 5.47 31.81 5.26L31.81 5.26L31.81 5.26Q31.81 4.68 32.40 4.68L32.40 4.68L32.40 4.68Q32.66 4.68 32.84 4.83L32.84 4.83L32.84 4.83Q33.01 4.98 33.12 5.32L33.12 5.32L34.64 10.04L36.06 5.21L36.06 5.21Q36.13 4.97 36.31 4.82L36.31 4.82L36.31 4.82Q36.48 4.68 36.76 4.68L36.76 4.68L36.76 4.68Q37.03 4.68 37.21 4.82L37.21 4.82L37.21 4.82Q37.38 4.97 37.45 5.21L37.45 5.21L38.71 10.14L40.25 5.32L40.25 5.32Q40.45 4.68 40.98 4.68L40.98 4.68ZM46.51 4.62L46.51 4.62Q47.61 4.62 48.49 5.12L48.49 5.12L48.49 5.12Q49.36 5.61 49.86 6.50L49.86 6.50L49.86 6.50Q50.36 7.38 50.36 8.51L50.36 8.51L50.36 8.51Q50.36 9.63 49.87 10.51L49.87 10.51L49.87 10.51Q49.38 11.40 48.50 11.89L48.50 11.89L48.50 11.89Q47.63 12.39 46.51 12.39L46.51 12.39L46.51 12.39Q45.39 12.39 44.51 11.89L44.51 11.89L44.51 11.89Q43.62 11.40 43.13 10.51L43.13 10.51L43.13 10.51Q42.64 9.63 42.64 8.51L42.64 8.51L42.64 8.51Q42.64 7.38 43.13 6.50L43.13 6.50L43.13 6.50Q43.62 5.61 44.51 5.12L44.51 5.12L44.51 5.12Q45.39 4.62 46.51 4.62L46.51 4.62ZM46.51 5.88L46.51 5.88Q45.79 5.88 45.23 6.22L45.23 6.22L45.23 6.22Q44.66 6.55 44.34 7.15L44.34 7.15L44.34 7.15Q44.02 7.76 44.02 8.51L44.02 8.51L44.02 8.51Q44.02 9.27 44.34 9.86L44.34 9.86L44.34 9.86Q44.66 10.46 45.23 10.79L45.23 10.79L45.23 10.79Q45.79 11.13 46.51 11.13L46.51 11.13L46.51 11.13Q47.22 11.13 47.79 10.79L47.79 10.79L47.79 10.79Q48.36 10.46 48.67 9.86L48.67 9.86L48.67 9.86Q48.99 9.27 48.99 8.51L48.99 8.51L48.99 8.51Q48.99 7.76 48.67 7.15L48.67 7.15L48.67 7.15Q48.36 6.55 47.79 6.22L47.79 6.22L47.79 6.22Q47.22 5.88 46.51 5.88L46.51 5.88ZM56.24 4.59L56.24 4.59Q56.98 4.59 57.40 4.82L57.40 4.82L57.40 4.82Q57.82 5.04 57.82 5.38L57.82 5.38L57.82 5.38Q57.82 5.47 57.81 5.52L57.81 5.52L57.81 5.52Q57.68 5.96 57.25 5.96L57.25 5.96L57.25 5.96Q57.18 5.96 57.04 5.94L57.04 5.94L57.04 5.94Q56.48 5.84 56.13 5.84L56.13 5.84L56.13 5.84Q55.12 5.84 54.50 6.30L54.50 6.30L54.50 6.30Q53.89 6.76 53.89 7.55L53.89 7.55L53.89 11.63L53.89 11.63Q53.89 11.97 53.71 12.15L53.71 12.15L53.71 12.15Q53.54 12.33 53.19 12.33L53.19 12.33L53.19 12.33Q52.85 12.33 52.67 12.16L52.67 12.16L52.67 12.16Q52.49 11.98 52.49 11.63L52.49 11.63L52.49 5.38L52.49 5.38Q52.49 5.04 52.67 4.86L52.67 4.86L52.67 4.86Q52.85 4.68 53.19 4.68L53.19 4.68L53.19 4.68Q53.89 4.68 53.89 5.38L53.89 5.38L53.89 5.64L53.89 5.64Q54.31 5.15 54.92 4.87L54.92 4.87L54.92 4.87Q55.54 4.59 56.24 4.59L56.24 4.59ZM59.01 2.10L59.01 2.10Q59.01 1.79 59.21 1.60L59.21 1.60L59.21 1.60Q59.40 1.40 59.71 1.40L59.71 1.40L59.71 1.40Q60.02 1.40 60.21 1.60L60.21 1.60L60.21 1.60Q60.41 1.79 60.41 2.10L60.41 2.10L60.41 9.74L60.41 9.74Q60.41 10.26 60.61 10.60L60.61 10.60L60.61 10.60Q60.80 10.93 61.11 10.93L61.11 10.93L61.46 10.93L61.46 10.93Q61.74 10.93 61.92 11.13L61.92 11.13L61.92 11.13Q62.09 11.33 62.09 11.63L62.09 11.63L62.09 11.63Q62.09 11.94 61.82 12.14L61.82 12.14L61.82 12.14Q61.56 12.33 61.14 12.33L61.14 12.33L61.11 12.33L61.11 12.33Q60.51 12.33 60.03 12.00L60.03 12.00L60.03 12.00Q59.54 11.68 59.28 11.08L59.28 11.08L59.28 11.08Q59.01 10.49 59.01 9.74L59.01 9.74L59.01 2.10ZM70.10 1.40L70.10 1.40Q70.42 1.40 70.62 1.60L70.62 1.60L70.62 1.60Q70.81 1.79 70.81 2.11L70.81 2.11L70.81 8.50L70.81 8.50Q70.81 9.59 70.30 10.48L70.30 10.48L70.30 10.48Q69.79 11.37 68.92 11.88L68.92 11.88L68.92 11.88Q68.04 12.39 66.96 12.39L66.96 12.39L66.96 12.39Q65.88 12.39 65.00 11.88L65.00 11.88L65.00 11.88Q64.11 11.37 63.60 10.48L63.60 10.48L63.60 10.48Q63.10 9.59 63.10 8.50L63.10 8.50L63.10 8.50Q63.10 7.41 63.57 6.52L63.57 6.52L63.57 6.52Q64.04 5.63 64.86 5.12L64.86 5.12L64.86 5.12Q65.67 4.62 66.68 4.62L66.68 4.62L66.68 4.62Q67.49 4.62 68.19 4.96L68.19 4.96L68.19 4.96Q68.89 5.29 69.38 5.89L69.38 5.89L69.38 2.11L69.38 2.11Q69.38 1.79 69.59 1.60L69.59 1.60L69.59 1.60Q69.79 1.40 70.10 1.40L70.10 1.40ZM66.96 11.13L66.96 11.13Q67.66 11.13 68.23 10.79L68.23 10.79L68.23 10.79Q68.80 10.44 69.12 9.84L69.12 9.84L69.12 9.84Q69.44 9.24 69.44 8.50L69.44 8.50L69.44 8.50Q69.44 7.76 69.12 7.16L69.12 7.16L69.12 7.16Q68.80 6.57 68.23 6.22L68.23 6.22L68.23 6.22Q67.66 5.88 66.96 5.88L66.96 5.88L66.96 5.88Q66.26 5.88 65.70 6.22L65.70 6.22L65.70 6.22Q65.13 6.57 64.80 7.16L64.80 7.16L64.80 7.16Q64.47 7.76 64.47 8.50L64.47 8.50L64.47 8.50Q64.47 9.24 64.80 9.84L64.80 9.84L64.80 9.84Q65.13 10.44 65.70 10.79L65.70 10.79L65.70 10.79Q66.26 11.13 66.96 11.13L66.96 11.13Z"></path></g><defs data-v-29081953=""><linearGradient data-v-29081953="" gradientTransform="rotate(25)" id="4f95b8c1-172e-4968-9e12-42f5ce794620" x1="0%" y1="0%" x2="100%" y2="0%"><stop data-v-29081953="" offset="0%" stop-color="#41E296" stop-opacity="1"></stop><stop data-v-29081953="" offset="100%" stop-color="#00C4EE" stop-opacity="1"></stop></linearGradient></defs><g data-v-29081953="" id="9279d678-f431-4402-bc2b-e1930af5ac15" stroke="url(#4f95b8c1-172e-4968-9e12-42f5ce794620)" fill="none" transform="matrix(1.0702451884697037,0,0,1.0702451884697037,96.7524705479555,66.35039810423817)"><circle stroke-miterlimit="10" cx="47.716" cy="48.5" r="36.5"></circle><circle stroke="#000" stroke-miterlimit="10" cx="83.716" cy="81.5" r="7.5"></circle><path stroke="#000" stroke-width="2" stroke-miterlimit="10" d="M13.216 60.232c-7.155 3.715-11.229 6.811-10.658 8.506 1.227 3.636 23.351-.547 49.416-9.343C78.036 50.6 98.175 40.521 96.947 36.886c-.598-1.772-6.163-1.687-14.73-.113"></path><circle stroke="#000" stroke-miterlimit="10" cx="14" cy="80" r="3"></circle></g><!----></svg>