<svg width="188" height="70" viewBox="0 0 188 70" fill="none" xmlns="http://www.w3.org/2000/svg">
<g clip-path="url(#clip0)">
<path d="M0.607117 10.2751H5.22456V13.2033C5.22456 13.4435 5.34387 13.563 5.58383 13.563C5.6859 13.563 5.78003 13.5205 5.8662 13.4342C5.95105 13.3493 6.04517 13.255 6.14858 13.1515C7.96082 10.7198 10.7316 9.50391 14.4608 9.50391C17.8122 9.50391 20.4463 10.4463 22.3633 12.3299C24.279 14.2147 25.2361 16.8681 25.2361 20.2927V36.9897H20.6187V21.0639C20.6187 18.6322 20.0022 16.7832 18.772 15.5155C17.5404 14.2492 15.7613 13.6148 13.436 13.6148C10.8005 13.6148 8.77481 14.4112 7.35497 16.004C5.93514 17.5969 5.22588 19.9689 5.22588 23.12V36.991H0.607117V10.2751Z" fill="#EC5328"/>
<path d="M31.0708 16.1314C32.2003 14.0077 33.7819 12.3737 35.8168 11.2255C37.8518 10.0787 40.2381 9.50391 42.9743 9.50391C45.6761 9.50391 47.9775 10.0694 49.8759 11.199C51.7744 12.3299 53.1942 13.8285 54.1355 15.6947C55.0754 17.5623 55.546 19.6078 55.546 21.8338V24.916H34.2512C34.4222 27.5879 35.3197 29.7117 36.945 31.286C38.569 32.8616 40.7498 33.6487 43.4874 33.6487C45.7106 33.6487 47.4128 33.1961 48.5927 32.2868C49.7725 31.3789 50.6369 30.1206 51.1844 28.5105H56.059C55.4081 31.0112 54.0837 33.1775 52.0819 35.0092C50.0801 36.8423 47.2153 37.7582 43.4874 37.7582C40.6822 37.7582 38.211 37.1835 36.0727 36.0366C33.9343 34.8898 32.2838 33.2545 31.1212 31.1307C29.9572 29.0069 29.3765 26.5075 29.3765 23.6297C29.3765 20.756 29.9413 18.2566 31.0708 16.1314ZM50.4155 21.0639C50.4155 18.7357 49.8163 16.9106 48.6192 15.5925C47.4221 14.2745 45.5409 13.6148 42.9743 13.6148C40.5801 13.6148 38.6207 14.2572 37.0988 15.5408C35.5769 16.8257 34.6436 18.6667 34.3029 21.0639H50.4155Z" fill="#EC5328"/>
<path d="M57.752 10.2751H62.4211L67.5529 32.0068C67.6205 32.247 67.6974 32.409 67.7836 32.4953C67.8684 32.5815 67.997 32.624 68.168 32.624C68.339 32.624 68.4756 32.5815 68.5777 32.4953C68.6811 32.4103 68.7487 32.247 68.7832 32.0068L73.8633 10.2751H82.1754L87.2555 32.0068C87.3232 32.247 87.4014 32.409 87.4862 32.4953C87.5711 32.5815 87.6997 32.624 87.8707 32.624C88.0417 32.624 88.1796 32.5815 88.2816 32.4953C88.3837 32.4103 88.4527 32.247 88.4871 32.0068L93.6189 10.2751H98.2881V11.3025L92.0281 36.9911H83.818L78.5324 14.5904C78.429 14.2825 78.258 14.1285 78.0194 14.1285C77.8828 14.1285 77.7794 14.163 77.7118 14.2307C77.6429 14.2997 77.5752 14.4192 77.5063 14.5904L72.2207 36.9911H64.0106L57.752 11.3025V10.2751Z" fill="#EC5328"/>
<path d="M101.017 10.2751H107.431V9.50394C107.431 6.28508 108.208 3.89582 109.766 2.33749C111.321 0.779164 113.707 0 116.923 0H121.542V4.10953H117.951H112.819C112.579 4.10953 112.391 4.17855 112.254 4.31527C112.118 4.45199 112.049 4.64047 112.049 4.88073V9.50394V10.2751H118.975V14.3847H112.049V36.9897H107.431V14.3847H101.017V10.2751Z" fill="#EC5328"/>
<path d="M140.835 11.1485C142.939 12.2449 144.599 13.8537 145.813 15.9775C147.028 18.1013 147.635 20.6525 147.635 23.6324C147.635 26.6123 147.028 29.1649 145.813 31.2873C144.599 33.4111 142.939 35.0212 140.835 36.1163C138.731 37.2127 136.38 37.7609 133.78 37.7609C131.18 37.7609 128.828 37.2127 126.725 36.1163C124.621 35.0199 122.961 33.4111 121.746 31.2873C120.532 29.1635 119.925 26.6123 119.925 23.6324C119.925 20.6525 120.532 18.1013 121.746 15.9775C122.961 13.8537 124.621 12.2449 126.725 11.1485C128.828 10.0521 131.18 9.50391 133.78 9.50391C136.38 9.50391 138.731 10.0534 140.835 11.1485ZM127.084 16.2602C125.391 18.0243 124.544 20.4812 124.544 23.6324C124.544 26.7836 125.39 29.2418 127.084 31.0046C128.777 32.7687 131.009 33.65 133.78 33.65C136.551 33.65 138.783 32.7687 140.476 31.0046C142.169 29.2405 143.016 26.7836 143.016 23.6324C143.016 20.4812 142.169 18.0243 140.476 16.2602C138.783 14.4961 136.551 13.6148 133.78 13.6148C131.009 13.6148 128.778 14.4975 127.084 16.2602Z" fill="#EC5328"/>
<path d="M156.401 0V36.991H151.783V0H156.401Z" fill="#EC5328"/>
<path d="M162.422 15.8235C163.671 13.6997 165.287 12.1162 167.27 11.0716C169.255 10.0269 171.376 9.50527 173.633 9.50527C177.43 9.50527 180.372 10.7557 182.459 13.2551C182.63 13.4953 182.818 13.6148 183.023 13.6148C183.262 13.6148 183.383 13.4781 183.383 13.2033V0H188.001V36.991H183.383V34.0629C183.383 33.7894 183.262 33.6514 183.023 33.6514C182.818 33.6514 182.63 33.7722 182.459 34.0111C180.372 36.5119 177.43 37.7609 173.633 37.7609C171.376 37.7609 169.255 37.2379 167.27 36.1933C165.285 35.1487 163.669 33.5651 162.422 31.4413C161.173 29.3175 160.549 26.7146 160.549 23.6324C160.549 20.5503 161.172 17.9473 162.422 15.8235ZM167.706 31.0046C169.399 32.7687 171.632 33.6501 174.402 33.6501C177.173 33.6501 179.406 32.7687 181.098 31.0046C182.791 29.2406 183.638 26.7836 183.638 23.6324C183.638 20.4813 182.791 18.0243 181.098 16.2602C179.406 14.4962 177.173 13.6148 174.402 13.6148C171.632 13.6148 169.399 14.4975 167.706 16.2602C166.013 18.0243 165.166 20.4813 165.166 23.6324C165.167 26.7849 166.013 29.2419 167.706 31.0046Z" fill="#EC5328"/>
<path d="M0.93595 54.15C1.56036 53.0881 2.36904 52.297 3.36067 51.774C4.3523 51.2523 5.41287 50.9908 6.54237 50.9908C8.44078 50.9908 9.91232 51.616 10.9557 52.8664C11.0405 52.9859 11.1346 53.0456 11.238 53.0456C11.3573 53.0456 11.417 52.9779 11.417 52.8399V46.2375H13.7264V64.7331H11.417V63.269C11.417 63.1323 11.3573 63.0633 11.238 63.0633C11.1359 63.0633 11.0418 63.123 10.9557 63.2424C9.91232 64.4928 8.44078 65.118 6.54237 65.118C5.41287 65.118 4.3523 64.8565 3.36067 64.3349C2.36904 63.8132 1.56036 63.0208 0.93595 61.9589C0.311541 60.897 0 59.5962 0 58.0551C0 56.514 0.311541 55.2119 0.93595 54.15ZM3.57941 61.7412C4.42654 62.6239 5.54279 63.0646 6.92815 63.0646C8.31352 63.0646 9.42976 62.6239 10.2769 61.7412C11.124 60.8598 11.5469 59.6307 11.5469 58.0551C11.5469 56.4795 11.124 55.2517 10.2769 54.369C9.42976 53.4876 8.31484 53.0456 6.92815 53.0456C5.54279 53.0456 4.42654 53.4863 3.57941 54.369C2.73228 55.2517 2.30938 56.4795 2.30938 58.0551C2.30938 59.6307 2.73228 60.8598 3.57941 61.7412Z" fill="#EC5328"/>
<path d="M20.1403 46.2388V49.3209H16.8049V46.2388H20.1403ZM19.6273 51.3757V64.733H17.3179V51.3757H19.6273Z" fill="#EC5328"/>
<path d="M24.7577 65.1699C24.8942 66.0261 25.292 66.703 25.9508 67.1995C26.6084 67.6959 27.5032 67.9441 28.6314 67.9441C30.1706 67.9441 31.3637 67.5499 32.2108 66.7628C33.0579 65.9743 33.4809 64.8699 33.4809 63.4483V62.5231C33.4809 62.4209 33.4291 62.3692 33.3271 62.3692C33.2409 62.3692 33.164 62.4116 33.0964 62.4979C32.1551 63.731 30.7022 64.3469 28.7348 64.3469C27.5881 64.3469 26.5288 64.0855 25.5531 63.5638C24.5787 63.0421 23.7952 62.2789 23.2053 61.2781C22.6153 60.2759 22.3197 59.0733 22.3197 57.669C22.3197 56.2646 22.6153 55.062 23.2053 54.0598C23.7952 53.0577 24.5774 52.2958 25.5531 51.7741C26.5275 51.2525 27.5881 50.991 28.7348 50.991C30.5988 50.991 32.061 51.6162 33.1216 52.8665C33.2754 53.055 33.4119 53.1493 33.5326 53.1493C33.6002 53.1493 33.6519 53.128 33.6863 53.0842C33.7208 53.0418 33.746 52.986 33.7632 52.917L34.2511 51.3759H35.7902V63.3209C35.7902 65.4274 35.1579 67.0667 33.8918 68.2401C32.6258 69.4135 30.8639 70.0002 28.6062 70.0002C26.6733 70.0002 25.1554 69.5595 24.0524 68.6768C22.9494 67.7941 22.329 66.626 22.1924 65.1699H24.7577V65.1699ZM25.2323 60.1485C25.634 60.8414 26.1775 61.3723 26.8616 61.7413C27.5457 62.109 28.2987 62.2935 29.1193 62.2935C29.9399 62.2935 30.6929 62.109 31.3769 61.7413C32.061 61.3736 32.6046 60.8427 33.0062 60.1485C33.4079 59.4543 33.6094 58.6286 33.6094 57.669C33.6094 56.7106 33.4079 55.8836 33.0062 55.1894C32.6046 54.4952 32.061 53.9656 31.3769 53.5966C30.6929 53.2289 29.9399 53.0444 29.1193 53.0444C28.2987 53.0444 27.5457 53.2289 26.8616 53.5966C26.1775 53.9643 25.634 54.4952 25.2323 55.1894C24.8306 55.8836 24.6291 56.7093 24.6291 57.669C24.6291 58.6286 24.8306 59.4556 25.2323 60.1485Z" fill="#EC5328"/>
<path d="M42.204 46.2388V49.3209H38.8685V46.2388H42.204ZM41.6896 51.3757V64.733H39.3802V51.3757H41.6896Z" fill="#EC5328"/>
<path d="M43.8702 51.3759H46.9485V47.78H49.2579V51.3759H52.722V53.4306H49.2579V59.7237V62.2921C49.2579 62.4116 49.2924 62.5058 49.36 62.5749C49.4276 62.6439 49.523 62.6771 49.6424 62.6771H52.2076H53.1051V64.7318H51.3088C49.8372 64.7318 48.7435 64.3721 48.025 63.6527C47.3065 62.9332 46.9472 61.8382 46.9472 60.3648V53.4293H43.8689V51.3759H43.8702Z" fill="#EC5328"/>
<path d="M56.1463 57.965C56.959 57.2893 58.1773 56.9336 59.8026 56.8991L64.6773 56.7969V56.258C64.6773 55.2479 64.3856 54.4594 63.8049 53.8953C63.223 53.3298 62.3162 53.0471 61.0859 53.0471C59.9909 53.0471 59.1623 53.2873 58.5976 53.7665C58.0328 54.2457 57.7504 54.8629 57.7504 55.6169H55.3138C55.3655 54.7435 55.6213 53.9563 56.0827 53.2542C56.544 52.552 57.2029 51.9998 58.058 51.5976C58.9131 51.1954 59.9219 50.9937 61.0859 50.9937C63.036 50.9937 64.5062 51.4649 65.4992 52.406C66.4908 53.3484 66.9867 54.6758 66.9867 56.3867V64.7359H64.6773V63.3488C64.6773 63.2466 64.6256 63.1948 64.5235 63.1948C64.4373 63.1948 64.3525 63.2466 64.2676 63.3488C63.3436 64.5301 61.9847 65.1208 60.1884 65.1208C58.5458 65.1208 57.2599 64.7186 56.3266 63.9129C55.3946 63.1085 54.928 62.0546 54.928 60.7538C54.928 59.5711 55.335 58.6419 56.1463 57.965ZM58.0845 62.4475C58.6493 62.859 59.4354 63.0647 60.4443 63.0647C61.7607 63.0647 62.7961 62.705 63.5491 61.9856C64.3021 61.2661 64.6786 60.2135 64.6786 58.8264V58.7242L59.8039 58.8264C58.9316 58.8437 58.286 59.0189 57.8671 59.3534C57.4482 59.6866 57.2387 60.1538 57.2387 60.7538C57.2374 61.4719 57.5197 62.0373 58.0845 62.4475Z" fill="#EC5328"/>
<path d="M72.7587 46.2388V64.7343H70.4493V46.2388H72.7587Z" fill="#EC5328"/>
</g>
<defs>
<clipPath id="clip0">
<rect width="188" height="70" fill="white"/>
</clipPath>
</defs>
</svg>
