<svg xmlns="http://www.w3.org/2000/svg" xmlns:xlink="http://www.w3.org/1999/xlink" style="overflow: visible; width: 100%; height: 100%; transition: all 350ms ease-in-out 0s; opacity: 1;" viewBox="726.72 913.74 466.55 87.92"><defs><path id="lt_ambientbold_87" d="M80.65 -15.30 L97.00 -71.10 L110.30 -71.10 L88.50 1.10 L73.25 1.10 L55.90 -52.30 L40.50 1.10 L25.25 1.10 L2.00 -71.10 L15.50 -71.10 L32.75 -15.45 L48.70 -71.10 L62.80 -71.10 L80.65 -15.30 Z"></path><path id="lt_ambientbold_98" d="M27.70 -49.10 Q34.40 -49.10 39.95 -45.82 Q45.50 -42.55 48.65 -36.70 L48.65 -36.70 Q51.75 -30.90 51.75 -23.85 L51.75 -23.85 Q51.75 -16.85 48.65 -11.05 Q45.55 -5.25 40.00 -1.95 L40.00 -1.95 Q34.55 1.40 27.70 1.40 L27.70 1.40 Q23.55 1.40 20.07 0.00 Q16.60 -1.40 13.95 -4.10 L13.95 -4.10 L13.95 1.20 L2.25 1.20 L2.25 -71.90 L13.95 -66.95 L13.95 -43.60 Q16.60 -46.30 20.07 -47.70 Q23.55 -49.10 27.70 -49.10 L27.70 -49.10 ZM27.00 -38.00 Q23.20 -38.00 20.17 -36.20 Q17.15 -34.40 15.45 -31.20 L15.45 -31.20 Q13.75 -28.00 13.75 -23.85 L13.75 -23.85 Q13.75 -19.75 15.42 -16.55 Q17.10 -13.35 20.20 -11.55 L20.20 -11.55 L20.20 -11.50 Q23.15 -9.70 27.00 -9.70 L27.00 -9.70 Q30.80 -9.70 33.85 -11.47 Q36.90 -13.25 38.60 -16.50 L38.60 -16.50 Q40.30 -19.70 40.30 -23.85 L40.30 -23.85 Q40.30 -27.95 38.62 -31.15 Q36.95 -34.35 33.90 -36.20 L33.90 -36.20 Q30.85 -38.00 27.00 -38.00 L27.00 -38.00 Z"></path><path id="lt_ambientbold_115" d="M1.25 -12.60 L1.50 -13.05 L3.35 -13.50 Q6.45 -11.15 10.12 -10.05 Q13.80 -8.95 18.60 -8.95 L18.60 -8.95 Q21.80 -8.95 24.25 -9.57 Q26.70 -10.20 28.05 -11.30 Q29.40 -12.40 29.40 -13.75 L29.40 -13.75 Q29.40 -17.15 21.95 -18.25 L21.95 -18.25 L17.05 -19.00 Q9.10 -20.25 4.92 -23.97 Q0.75 -27.70 0.75 -33.60 L0.75 -33.60 Q0.75 -38.20 3.47 -41.82 Q6.20 -45.45 11.20 -47.40 L11.20 -47.40 Q16.00 -49.25 21.90 -49.25 L21.90 -49.25 Q30.90 -49.25 38.10 -46.00 L38.10 -46.00 L37.90 -33.90 Q34.65 -36.10 30.32 -37.45 Q26.00 -38.80 22.25 -38.80 L22.25 -38.80 Q19.55 -38.80 17.40 -38.15 Q15.25 -37.50 13.95 -36.35 L13.95 -36.35 L14.00 -36.35 Q12.90 -35.30 12.90 -34.10 L12.90 -34.10 Q12.90 -32.50 14.45 -31.57 Q16.00 -30.65 19.95 -29.95 L19.95 -29.95 L24.80 -29.10 Q41.50 -26.20 41.50 -14.40 L41.50 -14.40 Q41.50 -9.65 38.47 -5.97 Q35.45 -2.30 29.95 -0.35 L29.95 -0.35 Q24.85 1.50 18.15 1.50 L18.15 1.50 Q13.55 1.50 9.12 0.47 Q4.70 -0.55 1.10 -2.50 L1.10 -2.50 L1.25 -12.60 Z"></path><path id="lt_ambientbold_116" d="M37.30 -13.05 L37.30 -0.55 Q32.00 2.00 26.25 2.00 L26.25 2.00 Q17.45 2.00 12.87 -2.92 Q8.30 -7.85 8.30 -17.35 L8.30 -17.35 L8.30 -37.65 L-1.45 -37.65 L3.70 -48.65 L8.30 -48.65 L8.30 -58.75 L20.30 -63.80 L20.30 -48.65 L37.85 -48.65 L32.70 -37.65 L20.30 -37.65 L20.30 -17.55 Q20.30 -13.60 22.07 -11.47 Q23.85 -9.35 27.15 -9.35 L27.15 -9.35 Q31.75 -9.35 37.30 -13.05 L37.30 -13.05 Z"></path><path id="lt_ambientbold_66" d="M2.00 -71.10 L30.15 -71.10 Q42.75 -71.10 49.55 -65.92 Q56.35 -60.75 56.35 -51.10 L56.35 -51.10 Q56.35 -46.90 54.75 -43.32 Q53.15 -39.75 50.25 -37.50 L50.25 -37.50 Q49.15 -36.70 47.90 -36.10 L47.90 -36.10 Q50.80 -34.90 53.12 -32.80 Q55.45 -30.70 56.95 -27.95 L56.95 -27.95 Q58.95 -24.25 58.95 -19.85 L58.95 -19.85 Q58.95 -9.60 52.00 -4.25 Q45.05 1.10 31.75 1.10 L31.75 1.10 L2.00 1.10 L2.00 -71.10 ZM14.90 -29.20 L14.90 -11.10 L31.25 -11.10 Q36.35 -11.10 39.30 -11.95 Q42.25 -12.80 43.90 -14.70 L43.90 -14.70 L43.90 -14.70 Q45.50 -16.65 45.50 -20.25 L45.50 -20.25 Q45.50 -23.50 44.10 -25.45 Q42.70 -27.40 39.60 -28.30 Q36.50 -29.20 31.25 -29.20 L31.25 -29.20 L14.90 -29.20 ZM14.90 -58.90 L14.90 -41.35 L29.80 -41.35 Q34.65 -41.35 37.27 -42.10 Q39.90 -42.85 41.40 -44.65 L41.40 -44.65 Q42.90 -46.55 42.90 -50.25 L42.90 -50.25 Q42.90 -54.30 41.00 -56.20 Q39.10 -58.10 36.50 -58.50 Q33.90 -58.90 29.70 -58.90 L29.70 -58.90 L14.90 -58.90 Z"></path><path id="lt_ambientbold_117" d="M46.95 -50.05 L46.95 -20.85 Q46.95 -13.85 43.95 -8.70 Q40.95 -3.55 35.35 -1.05 L35.35 -1.05 Q30.15 1.25 24.20 1.25 L24.20 1.25 Q17.75 1.25 12.67 -1.25 Q7.60 -3.75 4.65 -8.45 L4.65 -8.45 Q1.45 -13.50 1.45 -20.85 L1.45 -20.85 L1.45 -45.05 L13.35 -50.05 L13.35 -21.75 Q13.35 -16.00 16.12 -13.00 Q18.90 -10.00 24.20 -10.00 L24.20 -10.00 Q29.50 -10.00 32.27 -13.00 Q35.05 -16.00 35.05 -21.75 L35.05 -21.75 L35.05 -45.05 L46.95 -50.05 Z"></path><path id="lt_ambientbold_105" d="M2.80 0.75 L2.80 -44.75 L14.80 -49.80 L14.80 0.75 L2.80 0.75 ZM2.80 -48.45 L2.80 -59.10 L14.80 -64.15 L14.80 -53.50 L2.80 -48.45 Z"></path><path id="lt_ambientbold_108" d="M2.25 0.75 L2.25 -66.85 L14.25 -71.90 L14.25 0.75 L2.25 0.75 Z"></path><path id="lt_ambientbold_100" d="M24.95 -49.45 Q29.15 -49.45 32.70 -48.02 Q36.25 -46.60 38.95 -43.80 L38.95 -43.80 L38.95 -67.40 L50.70 -72.50 L50.70 1.25 L38.95 1.25 L38.95 -4.10 Q36.30 -1.35 32.75 0.07 Q29.20 1.50 24.95 1.50 L24.95 1.50 Q18.25 1.50 12.65 -1.82 Q7.05 -5.15 3.90 -11.05 L3.90 -11.05 Q0.75 -16.75 0.75 -24.00 L0.75 -24.00 Q0.75 -31.05 3.87 -36.90 Q7.00 -42.75 12.60 -46.10 L12.60 -46.10 Q18.10 -49.45 24.95 -49.45 L24.95 -49.45 ZM25.70 -38.25 Q21.85 -38.25 18.82 -36.47 Q15.80 -34.70 14.05 -31.40 L14.05 -31.40 Q12.30 -28.05 12.30 -24.00 L12.30 -24.00 Q12.30 -19.85 14.00 -16.60 Q15.70 -13.35 18.80 -11.55 L18.80 -11.55 L18.80 -11.50 Q21.70 -9.70 25.70 -9.70 L25.70 -9.70 Q29.60 -9.70 32.65 -11.50 Q35.70 -13.30 37.40 -16.55 L37.40 -16.55 Q39.10 -19.75 39.10 -24.00 L39.10 -24.00 Q39.10 -28.10 37.37 -31.37 Q35.65 -34.65 32.60 -36.45 L32.60 -36.45 Q29.50 -38.25 25.70 -38.25 L25.70 -38.25 Z"></path><path id="lt_ambientbold_101" d="M24.90 -49.40 Q31.60 -49.40 36.82 -46.20 Q42.05 -43.00 44.95 -37.15 L44.95 -37.15 Q47.85 -31.55 47.85 -24.00 L47.85 -24.00 Q47.85 -21.45 47.55 -19.40 L47.55 -19.40 L13.10 -19.40 Q14.10 -14.50 17.55 -11.75 Q21.00 -9.00 26.15 -9.00 L26.15 -9.00 Q29.75 -9.00 33.37 -10.37 Q37.00 -11.75 39.90 -14.25 L39.90 -14.25 L45.85 -5.75 Q41.80 -2.10 36.80 -0.30 Q31.80 1.50 25.55 1.50 L25.55 1.50 Q18.40 1.50 12.72 -1.70 Q7.05 -4.90 3.85 -10.75 L3.85 -10.75 Q0.75 -16.55 0.75 -23.95 L0.75 -23.95 Q0.75 -31.30 3.77 -37.12 Q6.80 -42.95 12.30 -46.15 L12.30 -46.15 Q17.80 -49.40 24.90 -49.40 L24.90 -49.40 ZM24.20 -38.80 Q19.55 -38.80 16.60 -36.22 Q13.65 -33.65 12.65 -28.75 L12.65 -28.75 L35.20 -28.75 Q34.25 -33.60 31.40 -36.20 Q28.55 -38.80 24.20 -38.80 L24.20 -38.80 Z"></path><path id="lt_ambientbold_114" d="M33.60 -48.20 L33.60 -34.90 Q32.80 -36.05 30.22 -36.82 Q27.65 -37.60 24.85 -37.60 L24.85 -37.60 Q21.60 -37.60 19.22 -36.25 Q16.85 -34.90 15.55 -32.25 L15.55 -32.25 Q14.20 -29.55 14.20 -25.85 L14.20 -25.85 L14.20 1.25 L2.25 1.25 L2.25 -44.70 L14.10 -49.80 L14.10 -44.10 Q18.75 -49.05 27.25 -49.05 L27.25 -49.05 Q31.40 -49.05 33.60 -48.20 L33.60 -48.20 Z"></path><path id="lt_ambientregular_87" d="M79.05 -8.50 L96.80 -69.10 L105.90 -69.10 L85.30 -0.90 L73.00 -0.90 L54.10 -59.10 L37.30 -0.90 L25.00 -0.90 L3.05 -69.10 L12.35 -69.10 L31.15 -8.40 L48.50 -69.10 L59.65 -69.10 L79.05 -8.50 Z"></path><path id="lt_ambientregular_98" d="M27.70 -47.10 Q33.90 -47.10 38.95 -44.12 Q44.00 -41.15 46.90 -35.75 L46.90 -35.75 Q49.75 -30.40 49.75 -23.85 L49.75 -23.85 Q49.75 -17.35 46.90 -12.05 Q44.05 -6.75 38.95 -3.65 L38.95 -3.65 Q33.95 -0.60 27.70 -0.60 L27.70 -0.60 Q22.30 -0.60 18.30 -3.10 Q14.30 -5.60 11.95 -10.50 L11.95 -10.50 L11.95 -0.80 L4.25 -0.80 L4.25 -68.85 L11.95 -65.60 L11.95 -37.20 Q14.30 -42.10 18.30 -44.60 Q22.30 -47.10 27.70 -47.10 L27.70 -47.10 ZM27.00 -40.00 Q22.70 -40.00 19.17 -37.92 Q15.65 -35.85 13.70 -32.15 L13.70 -32.15 Q11.75 -28.50 11.75 -23.85 L11.75 -23.85 Q11.75 -19.25 13.70 -15.55 Q15.65 -11.85 19.15 -9.80 L19.15 -9.80 Q22.55 -7.70 27.00 -7.70 L27.00 -7.70 Q31.35 -7.70 34.87 -9.77 Q38.40 -11.85 40.35 -15.55 L40.35 -15.55 Q42.30 -19.25 42.30 -23.85 L42.30 -23.85 Q42.30 -28.45 40.37 -32.15 Q38.45 -35.85 34.95 -37.95 L34.95 -37.95 Q31.30 -40.00 27.00 -40.00 L27.00 -40.00 Z"></path><path id="lt_ambientregular_115" d="M4.25 -33.60 Q4.25 -37.60 6.62 -40.70 Q9.00 -43.80 13.40 -45.55 L13.40 -45.55 Q17.85 -47.25 23.40 -47.25 L23.40 -47.25 Q31.30 -47.25 37.60 -44.70 L37.60 -44.70 L37.45 -37.35 Q34.25 -38.95 30.60 -39.87 Q26.95 -40.80 23.75 -40.80 L23.75 -40.80 Q20.70 -40.80 18.17 -40.02 Q15.65 -39.25 14.05 -37.80 L14.05 -37.80 Q12.40 -36.05 12.40 -34.10 L12.40 -34.10 Q12.40 -31.60 14.40 -30.20 Q16.40 -28.80 21.10 -27.95 L21.10 -27.95 L25.95 -27.10 Q33.60 -25.75 37.30 -22.62 Q41.00 -19.50 41.00 -14.40 L41.00 -14.40 Q41.00 -10.30 38.35 -7.15 Q35.70 -4.00 30.80 -2.25 L30.80 -2.25 Q25.85 -0.50 19.65 -0.50 L19.65 -0.50 Q15.70 -0.50 11.92 -1.30 Q8.15 -2.10 4.90 -3.60 L4.90 -3.60 L4.90 -11.00 Q8.00 -8.95 11.72 -7.95 Q15.45 -6.95 20.10 -6.95 L20.10 -6.95 Q23.90 -6.95 26.80 -7.80 Q29.70 -8.65 31.30 -10.17 Q32.90 -11.70 32.90 -13.75 L32.90 -13.75 Q32.90 -16.30 30.57 -17.92 Q28.25 -19.55 23.75 -20.25 L23.75 -20.25 L18.85 -21.00 Q11.60 -22.10 7.92 -25.30 Q4.25 -28.50 4.25 -33.60 L4.25 -33.60 Z"></path><path id="lt_ambientregular_44" d="M9.00 12.45 L2.40 12.45 L6.75 -9.30 L16.30 -9.30 L9.00 12.45 Z"></path><path id="lt_ambientregular_108" d="M4.25 -1.25 L4.25 -65.50 L12.25 -68.85 L12.25 -1.25 L4.25 -1.25 Z"></path><path id="lt_ambientregular_97" d="M46.80 -1.10 L39.10 -1.10 L39.10 -10.70 Q36.80 -5.75 32.77 -3.25 Q28.75 -0.75 23.25 -0.75 L23.25 -0.75 Q17.15 -0.75 12.12 -3.75 Q7.10 -6.75 4.15 -12.10 L4.15 -12.10 Q1.25 -17.50 1.25 -23.95 L1.25 -23.95 Q1.25 -30.45 4.10 -35.75 Q6.95 -41.05 12.05 -44.15 L12.05 -44.15 Q17.10 -47.15 23.25 -47.15 L23.25 -47.15 Q28.70 -47.15 32.70 -44.62 Q36.70 -42.10 39.10 -37.20 L39.10 -37.20 L39.10 -43.10 L46.80 -46.45 L46.80 -1.10 ZM24.00 -40.10 Q19.70 -40.10 16.17 -38.02 Q12.65 -35.95 10.70 -32.25 L10.70 -32.25 Q8.75 -28.60 8.75 -23.95 L8.75 -23.95 Q8.75 -19.35 10.67 -15.65 Q12.60 -11.95 16.10 -9.90 L16.10 -9.90 Q19.50 -7.80 24.00 -7.80 L24.00 -7.80 Q28.35 -7.80 31.87 -9.90 Q35.40 -12.00 37.30 -15.70 L37.30 -15.70 Q39.25 -19.40 39.25 -23.95 L39.25 -23.95 Q39.25 -28.50 37.30 -32.22 Q35.35 -35.95 31.90 -38.05 L31.90 -38.05 Q28.25 -40.10 24.00 -40.10 L24.00 -40.10 Z"></path><path id="lt_ambientregular_107" d="M4.25 -0.75 L4.25 -70.35 L12.25 -67.00 L12.25 -28.45 L14.35 -28.45 L30.15 -47.15 L39.95 -47.15 L21.05 -25.35 L40.30 -0.75 L30.25 -0.75 L14.30 -21.45 L12.25 -21.45 L12.25 -0.75 L4.25 -0.75 Z"></path><path id="lt_ambientregular_116" d="M32.80 -9.55 L32.80 -1.85 Q28.50 0.00 23.75 0.00 L23.75 0.00 Q7.80 0.00 7.80 -17.35 L7.80 -17.35 L7.80 -39.65 L-0.80 -39.65 L2.50 -46.65 L7.80 -46.65 L7.80 -57.40 L15.80 -60.75 L15.80 -46.65 L32.20 -46.65 L28.90 -39.65 L15.80 -39.65 L15.80 -17.55 Q15.80 -12.75 18.15 -10.05 Q20.50 -7.35 24.65 -7.35 L24.65 -7.35 Q28.50 -7.35 32.80 -9.55 L32.80 -9.55 Z"></path><path id="lt_ambientregular_105" d="M3.80 -1.25 L3.80 -43.40 L11.80 -46.75 L11.80 -1.25 L3.80 -1.25 ZM3.80 -48.50 L3.80 -54.75 L11.80 -58.10 L11.80 -51.85 L3.80 -48.50 Z"></path><path id="lt_ambientregular_110" d="M4.25 -0.75 L4.25 -43.40 L12.15 -46.75 L12.15 -39.70 Q13.25 -41.55 15.92 -43.35 Q18.60 -45.15 21.90 -46.27 Q25.20 -47.40 28.10 -47.40 L28.10 -47.40 Q33.40 -47.40 37.52 -45.17 Q41.65 -42.95 44.00 -38.90 L44.00 -38.90 Q46.30 -34.80 46.30 -29.60 L46.30 -29.60 L46.30 -0.75 L38.30 -0.75 L38.30 -26.15 Q38.30 -32.65 35.02 -36.30 Q31.75 -39.95 25.90 -39.95 L25.90 -39.95 Q21.95 -39.95 18.82 -38.20 Q15.70 -36.45 14.00 -33.30 L14.00 -33.30 Q12.25 -30.10 12.25 -26.05 L12.25 -26.05 L12.25 -0.75 L4.25 -0.75 Z"></path><path id="lt_ambientregular_103" d="M22.95 -47.05 Q29.05 -47.05 33.35 -44.50 Q37.65 -41.95 40.00 -36.95 L40.00 -36.95 L40.00 -43.55 L47.90 -46.90 L47.90 -2.95 Q47.90 4.15 45.05 9.25 Q42.20 14.35 36.70 17.10 L36.70 17.10 Q31.10 19.85 23.70 19.85 L23.70 19.85 Q18.65 19.85 13.75 18.60 Q8.85 17.35 5.45 15.15 L5.45 15.15 L8.20 8.60 Q15.80 12.90 23.70 12.90 L23.70 12.90 Q28.75 12.90 32.42 11.07 Q36.10 9.25 38.05 5.77 Q40.00 2.30 40.00 -2.50 L40.00 -2.50 L40.00 -10.75 Q35.30 -0.65 22.95 -0.65 L22.95 -0.65 Q17.50 -0.65 12.82 -3.52 Q8.15 -6.40 5.25 -11.50 L5.25 -11.50 Q2.25 -16.85 2.25 -23.85 L2.25 -23.85 Q2.25 -30.55 5.07 -35.95 Q7.90 -41.35 13.00 -44.25 L13.00 -44.25 Q17.70 -47.05 22.95 -47.05 L22.95 -47.05 ZM25.15 -39.80 Q20.80 -39.80 17.30 -37.75 Q13.80 -35.70 11.85 -32.05 L11.85 -32.05 Q9.90 -28.60 9.90 -23.85 L9.90 -23.85 Q9.90 -19.30 11.85 -15.65 Q13.80 -12.00 17.30 -9.95 L17.30 -9.95 Q20.85 -7.90 25.15 -7.90 L25.15 -7.90 Q29.45 -7.90 32.92 -9.95 Q36.40 -12.00 38.45 -15.70 L38.45 -15.70 Q40.40 -19.15 40.40 -23.85 L40.40 -23.85 Q40.40 -28.35 38.45 -32.02 Q36.50 -35.70 33.00 -37.75 L33.00 -37.75 Q29.45 -39.80 25.15 -39.80 L25.15 -39.80 Z"></path><path id="lt_ambientregular_38" d="M51.70 -0.45 L42.60 -9.40 Q34.00 -0.75 23.10 -0.75 L23.10 -0.75 L23.15 -0.75 L20.90 -0.85 Q15.00 -1.25 10.82 -3.40 Q6.65 -5.55 4.45 -9.25 L4.45 -9.25 Q2.25 -12.75 2.25 -17.80 L2.25 -17.80 Q2.25 -19.25 2.30 -19.35 L2.30 -19.35 Q2.70 -24.50 6.10 -28.85 Q9.50 -33.20 16.75 -37.80 L16.75 -37.80 L12.95 -41.85 Q10.05 -44.85 8.90 -46.40 Q7.75 -47.95 7.00 -49.70 L7.00 -49.70 Q6.20 -51.50 6.20 -53.90 L6.20 -53.90 Q6.20 -58.10 8.35 -61.45 Q10.50 -64.80 14.45 -66.70 L14.45 -66.70 Q18.40 -68.60 23.40 -68.60 L23.40 -68.60 Q28.45 -68.60 32.32 -66.82 Q36.20 -65.05 38.35 -61.75 L38.35 -61.75 Q40.50 -58.50 40.50 -54.25 L40.50 -54.25 Q40.50 -50.55 38.97 -47.55 Q37.45 -44.55 35.32 -42.42 Q33.20 -40.30 29.80 -37.55 L29.80 -37.55 L28.80 -36.75 L42.80 -21.30 L53.70 -35.00 L56.45 -26.40 L50.70 -19.15 L50.75 -19.20 Q50.25 -18.65 49.35 -17.35 L49.35 -17.35 L47.95 -15.45 L63.20 -0.50 L51.70 -0.45 ZM23.55 -8.10 Q27.50 -8.10 30.82 -9.77 Q34.15 -11.45 37.50 -15.05 L37.50 -15.05 L21.65 -32.45 Q16.05 -28.70 13.55 -25.37 Q11.05 -22.05 11.05 -18.35 L11.05 -18.35 Q11.05 -15.40 12.65 -13.00 Q14.25 -10.60 17.15 -9.35 L17.15 -9.35 Q19.85 -8.10 23.55 -8.10 L23.55 -8.10 ZM14.50 -53.30 Q14.50 -51.45 15.15 -49.90 Q15.80 -48.35 17.30 -46.60 L17.30 -46.60 L17.25 -46.65 Q18.50 -45.15 22.20 -41.50 L22.20 -41.50 Q27.75 -45.40 30.05 -48.15 Q32.35 -50.90 32.35 -53.75 L32.35 -53.75 Q32.35 -57.40 29.95 -59.52 Q27.55 -61.65 23.40 -61.65 L23.40 -61.65 Q19.30 -61.65 16.90 -59.40 Q14.50 -57.15 14.50 -53.30 L14.50 -53.30 Z"></path><path id="lt_ambientregular_32" d=""></path><path id="lt_ambientregular_109" d="M4.25 -0.75 L4.25 -46.75 L12.15 -43.40 L12.15 -39.55 Q13.25 -41.40 15.95 -43.22 Q18.65 -45.05 21.95 -46.22 Q25.25 -47.40 28.10 -47.40 L28.10 -47.40 Q33.85 -47.40 38.17 -44.77 Q42.50 -42.15 44.65 -37.40 L44.65 -37.40 Q46.85 -42.30 51.32 -44.85 Q55.80 -47.40 62.15 -47.40 L62.15 -47.40 Q67.40 -47.40 71.57 -45.15 Q75.75 -42.90 78.10 -38.85 L78.10 -38.85 Q80.40 -34.65 80.35 -29.60 L80.35 -29.60 L80.05 -0.75 L72.05 -0.75 L72.35 -26.15 Q72.40 -32.60 69.10 -36.27 Q65.80 -39.95 59.95 -39.95 L59.95 -39.95 Q56.00 -39.95 52.87 -38.20 Q49.75 -36.45 48.05 -33.30 L48.05 -33.30 Q46.30 -30.10 46.30 -26.05 L46.30 -26.05 L46.30 -0.75 L38.30 -0.75 L38.30 -26.15 Q38.30 -32.65 35.02 -36.30 Q31.75 -39.95 25.90 -39.95 L25.90 -39.95 Q21.95 -39.95 18.82 -38.20 Q15.70 -36.45 14.00 -33.30 L14.00 -33.30 Q12.25 -30.10 12.25 -26.05 L12.25 -26.05 L12.25 -0.75 L4.25 -0.75 Z"></path><path id="lt_ambientregular_111" d="M26.50 -47.15 Q33.20 -47.15 38.65 -44.15 Q44.10 -41.15 47.20 -35.80 L47.20 -35.80 Q50.30 -30.65 50.30 -23.95 L50.30 -23.95 Q50.30 -17.50 47.25 -12.20 Q44.20 -6.90 38.70 -3.80 L38.70 -3.80 Q33.25 -0.75 26.50 -0.75 L26.50 -0.75 Q19.80 -0.75 14.37 -3.72 Q8.95 -6.70 5.85 -12.10 L5.85 -12.10 Q2.75 -17.25 2.75 -23.95 L2.75 -23.95 Q2.75 -30.45 5.80 -35.75 Q8.85 -41.05 14.35 -44.15 L14.35 -44.15 Q19.90 -47.15 26.50 -47.15 L26.50 -47.15 ZM26.50 -40.10 Q22.10 -40.10 18.45 -38.00 Q14.80 -35.90 12.75 -32.20 L12.75 -32.20 Q10.70 -28.60 10.70 -23.95 L10.70 -23.95 Q10.70 -19.45 12.75 -15.72 Q14.80 -12.00 18.40 -9.90 L18.40 -9.90 Q21.90 -7.80 26.50 -7.80 L26.50 -7.80 Q30.90 -7.80 34.57 -9.90 Q38.25 -12.00 40.30 -15.70 L40.30 -15.70 Q42.35 -19.40 42.35 -23.95 L42.35 -23.95 Q42.35 -28.45 40.30 -32.17 Q38.25 -35.90 34.65 -38.00 L34.65 -38.00 Q31.10 -40.10 26.50 -40.10 L26.50 -40.10 Z"></path><path id="lt_ambientregular_114" d="M31.60 -46.70 L31.60 -38.45 Q28.60 -39.60 24.85 -39.60 L24.85 -39.60 Q21.05 -39.60 18.20 -37.92 Q15.35 -36.25 13.80 -33.15 L13.80 -33.15 Q12.20 -30.10 12.20 -25.85 L12.20 -25.85 L12.20 -0.75 L4.25 -0.75 L4.25 -43.40 L12.10 -46.75 L12.10 -36.50 Q13.75 -41.85 17.50 -44.45 Q21.25 -47.05 27.25 -47.05 L27.25 -47.05 Q30.00 -47.05 31.60 -46.70 L31.60 -46.70 Z"></path><path id="lt_ambientregular_101" d="M24.40 -47.40 Q30.50 -47.40 35.27 -44.50 Q40.05 -41.60 42.70 -36.25 L42.70 -36.25 Q45.35 -30.95 45.35 -24.00 L45.35 -24.00 Q45.35 -23.00 45.25 -21.40 L45.25 -21.40 L10.25 -21.40 Q10.65 -17.00 12.65 -13.75 Q14.65 -10.50 18.00 -8.75 Q21.35 -7.00 25.65 -7.00 L25.65 -7.00 Q29.05 -7.00 32.55 -8.15 Q36.05 -9.30 39.00 -11.40 L39.00 -11.40 L42.70 -6.10 Q39.05 -3.25 34.72 -1.87 Q30.40 -0.50 25.05 -0.50 L25.05 -0.50 Q18.40 -0.50 13.22 -3.42 Q8.05 -6.35 5.10 -11.70 L5.10 -11.70 Q2.25 -17.05 2.25 -23.95 L2.25 -23.95 Q2.25 -30.80 5.02 -36.17 Q7.80 -41.55 12.85 -44.45 L12.85 -44.45 Q17.70 -47.40 24.40 -47.40 L24.40 -47.40 ZM23.70 -40.80 Q17.80 -40.80 14.17 -37.12 Q10.55 -33.45 9.85 -26.75 L9.85 -26.75 L37.00 -26.75 Q36.35 -33.35 32.82 -37.07 Q29.30 -40.80 23.70 -40.80 L23.70 -40.80 Z"></path></defs><g transform="translate(0 0)"><g transform="translate(734.7226997603016 921.7435688253403)"><g transform="translate(90.47460133388888 0)"><g transform="translate(0 0)"><g transform="scale(0.56 0.56) translate(-2 72.5)"><use xlink:href="#lt_ambientbold_87" x="0.000" fill="#2992f3" stroke="#2992f3" stroke-width="0"></use><use xlink:href="#lt_ambientbold_101" x="112.300" fill="#2992f3" stroke="#2992f3" stroke-width="0"></use><use xlink:href="#lt_ambientbold_98" x="162.400" fill="#2992f3" stroke="#2992f3" stroke-width="0"></use><use xlink:href="#lt_ambientbold_115" x="216.400" fill="#2992f3" stroke="#2992f3" stroke-width="0"></use><use xlink:href="#lt_ambientbold_105" x="260.150" fill="#2992f3" stroke="#2992f3" stroke-width="0"></use><use xlink:href="#lt_ambientbold_116" x="277.750" fill="#2992f3" stroke="#2992f3" stroke-width="0"></use><use xlink:href="#lt_ambientbold_101" x="314.800" fill="#2992f3" stroke="#2992f3" stroke-width="0"></use><use xlink:href="#lt_ambientbold_66" x="364.900" fill="#2992f3" stroke="#2992f3" stroke-width="0"></use><use xlink:href="#lt_ambientbold_117" x="425.850" fill="#2992f3" stroke="#2992f3" stroke-width="0"></use><use xlink:href="#lt_ambientbold_105" x="474.250" fill="#2992f3" stroke="#2992f3" stroke-width="0"></use><use xlink:href="#lt_ambientbold_108" x="491.850" fill="#2992f3" stroke="#2992f3" stroke-width="0"></use><use xlink:href="#lt_ambientbold_100" x="508.350" fill="#2992f3" stroke="#2992f3" stroke-width="0"></use><use xlink:href="#lt_ambientbold_101" x="561.300" fill="#2992f3" stroke="#2992f3" stroke-width="0"></use><use xlink:href="#lt_ambientbold_114" x="611.400" fill="#2992f3" stroke="#2992f3" stroke-width="0"></use></g></g><g transform="translate(0 51.32000213623047)"><g transform="scale(0.21 0.21) translate(304.86666412353554 70.3499984741211)"><use xlink:href="#lt_ambientregular_87" x="0.000" fill="#4e6c9b" stroke="#4e6c9b" stroke-width="0"></use><use xlink:href="#lt_ambientregular_101" x="107.900" fill="#4e6c9b" stroke="#4e6c9b" stroke-width="0"></use><use xlink:href="#lt_ambientregular_98" x="156.500" fill="#4e6c9b" stroke="#4e6c9b" stroke-width="0"></use><use xlink:href="#lt_ambientregular_115" x="209.500" fill="#4e6c9b" stroke="#4e6c9b" stroke-width="0"></use><use xlink:href="#lt_ambientregular_105" x="253.750" fill="#4e6c9b" stroke="#4e6c9b" stroke-width="0"></use><use xlink:href="#lt_ambientregular_116" x="268.350" fill="#4e6c9b" stroke="#4e6c9b" stroke-width="0"></use><use xlink:href="#lt_ambientregular_101" x="301.900" fill="#4e6c9b" stroke="#4e6c9b" stroke-width="0"></use><use xlink:href="#lt_ambientregular_115" x="350.500" fill="#4e6c9b" stroke="#4e6c9b" stroke-width="0"></use><use xlink:href="#lt_ambientregular_44" x="394.750" fill="#4e6c9b" stroke="#4e6c9b" stroke-width="0"></use><use xlink:href="#lt_ambientregular_32" x="412.600" fill="#4e6c9b" stroke="#4e6c9b" stroke-width="0"></use><use xlink:href="#lt_ambientregular_101" x="438.600" fill="#4e6c9b" stroke="#4e6c9b" stroke-width="0"></use><use xlink:href="#lt_ambientregular_109" x="487.200" fill="#4e6c9b" stroke="#4e6c9b" stroke-width="0"></use><use xlink:href="#lt_ambientregular_97" x="570.800" fill="#4e6c9b" stroke="#4e6c9b" stroke-width="0"></use><use xlink:href="#lt_ambientregular_105" x="620.850" fill="#4e6c9b" stroke="#4e6c9b" stroke-width="0"></use><use xlink:href="#lt_ambientregular_108" x="635.450" fill="#4e6c9b" stroke="#4e6c9b" stroke-width="0"></use><use xlink:href="#lt_ambientregular_32" x="650.950" fill="#4e6c9b" stroke="#4e6c9b" stroke-width="0"></use><use xlink:href="#lt_ambientregular_109" x="676.950" fill="#4e6c9b" stroke="#4e6c9b" stroke-width="0"></use><use xlink:href="#lt_ambientregular_97" x="760.550" fill="#4e6c9b" stroke="#4e6c9b" stroke-width="0"></use><use xlink:href="#lt_ambientregular_114" x="810.600" fill="#4e6c9b" stroke="#4e6c9b" stroke-width="0"></use><use xlink:href="#lt_ambientregular_107" x="841.800" fill="#4e6c9b" stroke="#4e6c9b" stroke-width="0"></use><use xlink:href="#lt_ambientregular_101" x="882.650" fill="#4e6c9b" stroke="#4e6c9b" stroke-width="0"></use><use xlink:href="#lt_ambientregular_116" x="931.250" fill="#4e6c9b" stroke="#4e6c9b" stroke-width="0"></use><use xlink:href="#lt_ambientregular_105" x="964.800" fill="#4e6c9b" stroke="#4e6c9b" stroke-width="0"></use><use xlink:href="#lt_ambientregular_110" x="979.400" fill="#4e6c9b" stroke="#4e6c9b" stroke-width="0"></use><use xlink:href="#lt_ambientregular_103" x="1028.950" fill="#4e6c9b" stroke="#4e6c9b" stroke-width="0"></use><use xlink:href="#lt_ambientregular_32" x="1080.100" fill="#4e6c9b" stroke="#4e6c9b" stroke-width="0"></use><use xlink:href="#lt_ambientregular_38" x="1106.100" fill="#4e6c9b" stroke="#4e6c9b" stroke-width="0"></use><use xlink:href="#lt_ambientregular_32" x="1171.600" fill="#4e6c9b" stroke="#4e6c9b" stroke-width="0"></use><use xlink:href="#lt_ambientregular_109" x="1197.600" fill="#4e6c9b" stroke="#4e6c9b" stroke-width="0"></use><use xlink:href="#lt_ambientregular_111" x="1281.200" fill="#4e6c9b" stroke="#4e6c9b" stroke-width="0"></use><use xlink:href="#lt_ambientregular_114" x="1333.250" fill="#4e6c9b" stroke="#4e6c9b" stroke-width="0"></use><use xlink:href="#lt_ambientregular_101" x="1364.450" fill="#4e6c9b" stroke="#4e6c9b" stroke-width="0"></use></g></g></g><g transform="translate(0 0)"><g><rect fill="none" x="0" y="0" width="75.172028864025" height="71.92209060836029"></rect><rect></rect><g fill="#2992f3" x="0" y="0" transform="translate(-5.164621643672542, -6.78946816707824) scale(0.8485812493704709)"><path d="M43.387,41.541c-0.386,0.057-0.899-0.146-1.142-0.452l-1.797-2.268c-0.242-0.305-0.323-0.852-0.179-1.214l1.066-2.692  c0.144-0.362,0.577-0.705,0.962-0.762l2.861-0.422c0.386-0.057,0.899,0.146,1.141,0.452l1.797,2.268  c0.242,0.305,0.323,0.852,0.18,1.214l-1.066,2.692c-0.144,0.362-0.576,0.705-0.962,0.762L43.387,41.541z" fill="#2992f3"></path><path d="M50.333,32.698c-0.386,0.057-0.899-0.146-1.141-0.452l-1.632-2.059c-0.242-0.305-0.323-0.852-0.18-1.214l0.962-2.44  c0.143-0.362,0.575-0.706,0.961-0.763l2.599-0.383c0.386-0.057,0.896,0.146,1.141,0.452l1.627,2.058  c0.241,0.306,0.322,0.853,0.18,1.215l-0.961,2.439c-0.144,0.362-0.576,0.706-0.962,0.763L50.333,32.698z" fill="#2992f3"></path><path d="M53.963,43.482c-0.386,0.057-0.898-0.146-1.141-0.452l-2.049-2.588c-0.241-0.306-0.322-0.852-0.182-1.215l1.213-3.064  c0.145-0.363,0.574-0.706,0.963-0.764l3.268-0.487c0.386-0.058,0.898,0.146,1.141,0.451l2.049,2.588  c0.24,0.306,0.321,0.853,0.18,1.215l-1.213,3.071C58.049,42.6,57.617,42.943,57.23,43L53.963,43.482z" fill="#2992f3"></path><path d="M60.855,34.305c-0.389,0.057-0.899-0.146-1.145-0.451l-1.539-1.942c-0.24-0.305-0.32-0.852-0.18-1.214l0.906-2.303  c0.146-0.363,0.576-0.706,0.963-0.763l2.453-0.363c0.389-0.057,0.899,0.146,1.145,0.452L65,29.661  c0.242,0.305,0.322,0.852,0.182,1.214l-0.914,2.304c-0.146,0.362-0.578,0.706-0.963,0.763L60.855,34.305z" fill="#2992f3"></path><path d="M68.344,27.115c-0.386,0.057-0.898-0.146-1.142-0.452l-1.188-1.494c-0.242-0.306-0.322-0.852-0.179-1.214l0.705-1.773  c0.144-0.362,0.577-0.705,0.963-0.762l1.876-0.278c0.387-0.057,0.898,0.146,1.143,0.451l1.188,1.496  c0.243,0.305,0.324,0.851,0.181,1.213l-0.701,1.771c-0.144,0.362-0.576,0.705-0.961,0.762L68.344,27.115z" fill="#2992f3"></path><path d="M75.709,21.598c-0.387,0.057-0.898-0.147-1.143-0.452l-0.58-0.734c-0.242-0.305-0.323-0.852-0.18-1.214l0.344-0.873  c0.144-0.363,0.576-0.706,0.961-0.762l0.928-0.136c0.386-0.056,0.898,0.146,1.143,0.453l0.582,0.732  c0.241,0.305,0.322,0.852,0.18,1.214L77.598,20.7c-0.144,0.363-0.576,0.706-0.961,0.762L75.709,21.598z" fill="#2992f3"></path><path d="M78.098,30.669c-0.386,0.058-0.896-0.145-1.143-0.45l-0.673-0.847c-0.243-0.305-0.324-0.851-0.181-1.213l0.396-1.003  c0.146-0.362,0.576-0.705,0.962-0.761l1.068-0.157c0.388-0.056,0.9,0.147,1.145,0.452l0.674,0.845  c0.242,0.305,0.323,0.851,0.182,1.213l-0.396,0.999c-0.146,0.362-0.575,0.706-0.962,0.763L78.098,30.669z" fill="#2992f3"></path><path d="M84.493,27.956c-0.386,0.056-0.897-0.148-1.142-0.454l-0.226-0.285c-0.239-0.306-0.319-0.853-0.179-1.214l0.136-0.338  c0.146-0.362,0.577-0.704,0.963-0.76l0.354-0.052c0.387-0.056,0.897,0.148,1.143,0.453l0.225,0.281  c0.24,0.305,0.321,0.852,0.18,1.214l-0.135,0.342c-0.146,0.363-0.576,0.705-0.963,0.761L84.493,27.956z" fill="#2992f3"></path><path d="M70.947,36.726c-0.387,0.057-0.899-0.146-1.143-0.452l-1.271-1.605c-0.242-0.305-0.323-0.852-0.18-1.214l0.754-1.903  c0.146-0.362,0.578-0.705,0.963-0.762l2.022-0.298c0.386-0.057,0.898,0.146,1.142,0.452l1.271,1.605  c0.242,0.305,0.323,0.852,0.181,1.214l-0.752,1.902c-0.145,0.363-0.576,0.706-0.961,0.763L70.947,36.726z" fill="#2992f3"></path><path d="M79.061,39.311c-0.386,0.057-0.896-0.146-1.142-0.451l-0.851-1.069c-0.241-0.306-0.321-0.852-0.178-1.214l0.506-1.273  c0.144-0.362,0.576-0.706,0.963-0.763l1.347-0.199c0.386-0.057,0.899,0.146,1.142,0.451l0.854,1.074  c0.241,0.305,0.321,0.852,0.179,1.214l-0.502,1.268c-0.146,0.362-0.577,0.706-0.963,0.763L79.061,39.311z" fill="#2992f3"></path><path d="M86.415,37.749c-0.386,0.058-0.899-0.146-1.142-0.451L84.6,36.447c-0.242-0.306-0.322-0.853-0.181-1.215l0.397-1.011  c0.144-0.362,0.576-0.705,0.961-0.761l1.078-0.157c0.387-0.056,0.897,0.147,1.143,0.453l0.672,0.845  c0.242,0.305,0.323,0.851,0.18,1.213l-0.398,1.012c-0.146,0.362-0.577,0.706-0.965,0.763L86.415,37.749z" fill="#2992f3"></path><path d="M65.908,16.414c-0.387,0.057-0.899-0.146-1.143-0.451l-0.518-0.649c-0.242-0.305-0.323-0.852-0.182-1.214l0.307-0.768  c0.146-0.362,0.576-0.706,0.962-0.762l0.812-0.121c0.389-0.057,0.899,0.146,1.146,0.451l0.519,0.648  c0.24,0.305,0.321,0.851,0.18,1.213l-0.305,0.769c-0.146,0.362-0.578,0.706-0.963,0.763L65.908,16.414z" fill="#2992f3"></path><path d="M55.668,14.289c-0.386,0.057-0.898-0.146-1.141-0.452l-0.846-1.068c-0.242-0.306-0.324-0.853-0.184-1.215l0.497-1.259  c0.146-0.362,0.573-0.706,0.961-0.763l1.354-0.2c0.387-0.057,0.896,0.147,1.141,0.453l0.84,1.066  c0.241,0.306,0.32,0.853,0.177,1.215l-0.497,1.26c-0.146,0.362-0.578,0.706-0.965,0.763L55.668,14.289z" fill="#2992f3"></path><path d="M44.567,14.551c-0.386,0.057-0.899-0.146-1.141-0.452l-0.944-1.191c-0.242-0.306-0.322-0.852-0.179-1.214l0.561-1.412  c0.144-0.362,0.577-0.706,0.962-0.763l1.504-0.224c0.385-0.058,0.898,0.146,1.141,0.451l0.943,1.192  c0.242,0.306,0.323,0.853,0.18,1.215l-0.557,1.411c-0.143,0.362-0.575,0.706-0.961,0.763L44.567,14.551z" fill="#2992f3"></path><path d="M35.592,14.826c-0.386,0.057-0.899-0.146-1.14-0.452l-0.499-0.633c-0.241-0.306-0.323-0.853-0.18-1.216l0.295-0.754  c0.143-0.363,0.574-0.706,0.96-0.762l0.803-0.117c0.386-0.056,0.9,0.147,1.143,0.452l0.507,0.637  c0.243,0.305,0.323,0.85,0.179,1.212l-0.3,0.75c-0.145,0.362-0.578,0.705-0.964,0.762L35.592,14.826z" fill="#2992f3"></path><path d="M47.88,22.751c-0.386,0.057-0.899-0.146-1.141-0.452l-1.12-1.414c-0.242-0.306-0.323-0.854-0.18-1.215l0.66-1.674  c0.143-0.362,0.575-0.705,0.961-0.761l1.786-0.261c0.386-0.056,0.899,0.148,1.141,0.454l1.115,1.407  c0.242,0.306,0.323,0.852,0.183,1.215l-0.661,1.673c-0.143,0.363-0.576,0.706-0.961,0.763L47.88,22.751z" fill="#2992f3"></path><path d="M58.154,24.47c-0.387,0.057-0.899-0.146-1.143-0.452l-1.188-1.493c-0.242-0.305-0.323-0.852-0.184-1.214l0.699-1.773  c0.143-0.362,0.575-0.706,0.961-0.762l1.891-0.279c0.389-0.057,0.9,0.147,1.145,0.452l1.188,1.495  c0.242,0.305,0.322,0.852,0.18,1.214l-0.702,1.771c-0.146,0.362-0.577,0.706-0.963,0.762L58.154,24.47z" fill="#2992f3"></path><path d="M40.447,31.083c-0.386,0.058-0.899-0.146-1.141-0.452l-1.273-1.61c-0.242-0.306-0.322-0.853-0.18-1.215l0.753-1.91  c0.143-0.362,0.575-0.706,0.961-0.762l2.036-0.3c0.386-0.057,0.899,0.147,1.141,0.453l1.271,1.604  c0.242,0.306,0.323,0.853,0.18,1.215l-0.752,1.91c-0.143,0.362-0.575,0.706-0.96,0.764L40.447,31.083z" fill="#2992f3"></path><path d="M37.979,22.192c-0.385,0.058-0.899-0.146-1.141-0.451l-0.798-1.007c-0.242-0.305-0.323-0.852-0.18-1.214l0.476-1.202  c0.144-0.363,0.576-0.706,0.961-0.764l1.275-0.19c0.385-0.058,0.898,0.146,1.14,0.452l0.8,1.013  c0.242,0.306,0.322,0.853,0.178,1.215l-0.475,1.195c-0.144,0.362-0.577,0.706-0.962,0.763L37.979,22.192z" fill="#2992f3"></path><path d="M28.481,21.551c-0.386,0.057-0.899-0.146-1.141-0.452l-0.668-0.843c-0.242-0.306-0.323-0.852-0.18-1.215l0.397-1.005  c0.143-0.363,0.576-0.705,0.961-0.761l1.065-0.156c0.386-0.056,0.899,0.148,1.141,0.454l0.668,0.844  c0.242,0.306,0.322,0.852,0.179,1.214l-0.396,0.999c-0.144,0.362-0.577,0.706-0.962,0.763L28.481,21.551z" fill="#2992f3"></path><path d="M21.894,21.578c-0.386,0.057-0.9-0.146-1.143-0.451l-0.362-0.454c-0.243-0.305-0.324-0.85-0.181-1.212l0.214-0.54  c0.143-0.362,0.576-0.706,0.961-0.763l0.579-0.086c0.386-0.058,0.898,0.146,1.139,0.453l0.357,0.454  c0.241,0.307,0.321,0.854,0.177,1.216l-0.212,0.538c-0.144,0.363-0.576,0.706-0.962,0.762L21.894,21.578z" fill="#2992f3"></path><path d="M30.147,29.994c-0.386,0.057-0.899-0.146-1.142-0.451l-0.849-1.069c-0.243-0.305-0.324-0.851-0.18-1.214l0.501-1.267  c0.144-0.363,0.576-0.705,0.962-0.761l1.353-0.197c0.386-0.056,0.899,0.148,1.141,0.454l0.838,1.06  c0.242,0.306,0.323,0.852,0.179,1.214l-0.501,1.268c-0.144,0.362-0.576,0.706-0.962,0.763L30.147,29.994z" fill="#2992f3"></path><path d="M21.481,29.385c-0.386,0.056-0.9-0.147-1.143-0.452l-0.724-0.91c-0.243-0.305-0.323-0.851-0.179-1.213l0.433-1.086  c0.144-0.362,0.578-0.705,0.963-0.761l1.144-0.168c0.386-0.057,0.9,0.146,1.143,0.452l0.726,0.912  c0.243,0.305,0.324,0.851,0.18,1.213l-0.43,1.083c-0.144,0.362-0.577,0.705-0.962,0.761L21.481,29.385z" fill="#2992f3"></path><path d="M32.889,39.79c-0.386,0.057-0.899-0.147-1.141-0.452l-1.481-1.869c-0.242-0.305-0.322-0.852-0.179-1.214l0.881-2.225  c0.144-0.362,0.577-0.706,0.962-0.763l2.363-0.35c0.386-0.057,0.899,0.146,1.141,0.452l1.482,1.874  c0.242,0.306,0.322,0.852,0.179,1.215l-0.88,2.224c-0.144,0.363-0.576,0.706-0.962,0.762L32.889,39.79z" fill="#2992f3"></path><path d="M64.746,44.952c-0.387,0.057-0.898-0.146-1.141-0.452l-1.783-2.255c-0.241-0.306-0.322-0.853-0.18-1.215l1.055-2.677  c0.143-0.362,0.574-0.706,0.961-0.762l2.849-0.418c0.386-0.057,0.899,0.147,1.142,0.453l1.783,2.256  c0.241,0.306,0.322,0.852,0.18,1.215l-1.055,2.67c-0.143,0.363-0.574,0.706-0.961,0.763L64.746,44.952z" fill="#2992f3"></path><path d="M74.301,47.111c-0.386,0.057-0.898-0.147-1.142-0.452l-1.279-1.611c-0.241-0.305-0.323-0.852-0.179-1.214l0.756-1.905  c0.145-0.362,0.577-0.706,0.963-0.763l2.033-0.302c0.386-0.058,0.898,0.146,1.141,0.451l1.275,1.611  c0.24,0.306,0.322,0.852,0.18,1.215l-0.754,1.91c-0.143,0.362-0.574,0.706-0.961,0.762L74.301,47.111z" fill="#2992f3"></path><path d="M83.629,48.246c-0.386,0.057-0.898-0.146-1.143-0.452l-1.192-1.502c-0.241-0.305-0.323-0.851-0.179-1.213l0.711-1.792  c0.145-0.362,0.576-0.705,0.963-0.762l1.902-0.279c0.386-0.057,0.896,0.147,1.142,0.453l1.192,1.507  c0.242,0.306,0.322,0.852,0.18,1.214l-0.711,1.784c-0.145,0.362-0.577,0.705-0.963,0.762L83.629,48.246z" fill="#2992f3"></path><path d="M91.617,46.52c-0.387,0.058-0.898-0.146-1.141-0.452l-0.334-0.423c-0.242-0.306-0.322-0.853-0.182-1.215l0.2-0.506  c0.146-0.362,0.573-0.705,0.962-0.761l0.531-0.078c0.387-0.056,0.898,0.147,1.144,0.453l0.341,0.426  c0.241,0.305,0.321,0.851,0.18,1.213l-0.197,0.5c-0.145,0.362-0.577,0.706-0.963,0.763L91.617,46.52z" fill="#2992f3"></path><path d="M9.636,39.804c-0.385,0.058-0.898-0.145-1.14-0.451L8.454,39.3c-0.242-0.306-0.322-0.852-0.179-1.215l0.026-0.065  c0.143-0.363,0.576-0.706,0.961-0.762l0.064-0.009c0.386-0.057,0.9,0.146,1.143,0.451l0.044,0.056  c0.243,0.305,0.324,0.851,0.181,1.213L10.67,39.03c-0.144,0.362-0.577,0.706-0.962,0.764L9.636,39.804z" fill="#2992f3"></path><path d="M14.632,29.562c-0.385,0.058-0.898-0.146-1.14-0.452l-0.231-0.292c-0.241-0.306-0.322-0.853-0.178-1.215l0.136-0.343  c0.144-0.362,0.576-0.706,0.962-0.763l0.369-0.054c0.386-0.057,0.898,0.146,1.14,0.452l0.23,0.292  c0.241,0.306,0.321,0.852,0.176,1.214l-0.138,0.343c-0.145,0.362-0.578,0.705-0.963,0.763L14.632,29.562z" fill="#2992f3"></path><path d="M23.18,38.713c-0.386,0.057-0.899-0.146-1.142-0.452l-1.02-1.285c-0.243-0.306-0.323-0.852-0.18-1.214l0.605-1.529  c0.144-0.362,0.577-0.706,0.962-0.762l1.616-0.239c0.386-0.057,0.899,0.146,1.142,0.451l1.02,1.285  c0.243,0.305,0.324,0.851,0.18,1.213l-0.605,1.529c-0.144,0.363-0.576,0.706-0.962,0.763L23.18,38.713z" fill="#2992f3"></path><path d="M15.097,37.979c-0.386,0.057-0.899-0.147-1.141-0.453l-0.667-0.844c-0.242-0.306-0.322-0.852-0.179-1.214l0.396-0.999  c0.144-0.362,0.577-0.706,0.962-0.763l1.064-0.158c0.385-0.058,0.898,0.146,1.141,0.451l0.668,0.844  c0.242,0.306,0.323,0.852,0.18,1.215l-0.397,1.004c-0.143,0.363-0.576,0.706-0.961,0.762L15.097,37.979z" fill="#2992f3"></path><path d="M26.749,47.721c-0.386,0.057-0.899-0.147-1.14-0.453l-1.182-1.499c-0.241-0.306-0.322-0.853-0.179-1.215l0.7-1.771  c0.143-0.363,0.576-0.706,0.961-0.763l1.891-0.279c0.386-0.057,0.899,0.146,1.141,0.452l1.181,1.493  c0.242,0.306,0.323,0.853,0.18,1.215L29.6,46.679c-0.143,0.362-0.575,0.706-0.961,0.762L26.749,47.721z" fill="#2992f3"></path><path d="M36.432,49.341c-0.386,0.057-0.899-0.147-1.142-0.452l-1.631-2.051c-0.243-0.305-0.323-0.851-0.179-1.213l0.967-2.436  c0.144-0.362,0.577-0.706,0.963-0.763l2.585-0.383c0.386-0.057,0.899,0.146,1.141,0.451l1.626,2.053  c0.242,0.305,0.323,0.852,0.18,1.214l-0.962,2.44c-0.143,0.362-0.575,0.705-0.961,0.762L36.432,49.341z" fill="#2992f3"></path><path d="M46.915,51.305c-0.386,0.057-0.899-0.148-1.142-0.453l-1.755-2.208c-0.243-0.306-0.324-0.852-0.18-1.214l1.04-2.625  c0.143-0.362,0.576-0.706,0.962-0.763l2.796-0.415c0.386-0.057,0.899,0.146,1.142,0.451l1.75,2.208  c0.242,0.305,0.324,0.852,0.184,1.215l-1.033,2.631c-0.144,0.363-0.576,0.706-0.962,0.765L46.915,51.305z" fill="#2992f3"></path><path d="M57.926,53.258c-0.386,0.057-0.898-0.146-1.142-0.451l-1.89-2.376c-0.242-0.305-0.322-0.852-0.182-1.214l1.119-2.829  c0.146-0.363,0.576-0.706,0.962-0.762l3.009-0.443c0.385-0.057,0.896,0.147,1.141,0.453l1.883,2.377  c0.24,0.306,0.322,0.852,0.179,1.214l-1.12,2.831c-0.144,0.359-0.576,0.703-0.962,0.762L57.926,53.258z" fill="#2992f3"></path><path d="M68.842,55.148c-0.386,0.057-0.898-0.147-1.142-0.453l-1.533-1.934c-0.242-0.308-0.323-0.855-0.181-1.217l0.906-2.291  c0.145-0.363,0.574-0.706,0.963-0.763l2.44-0.363c0.388-0.057,0.897,0.146,1.144,0.451l1.533,1.935  c0.24,0.307,0.321,0.854,0.18,1.215l-0.907,2.299c-0.144,0.363-0.576,0.705-0.962,0.763L68.842,55.148z" fill="#2992f3"></path><path d="M78.918,56.584c-0.386,0.057-0.898-0.146-1.143-0.452l-1.271-1.604c-0.24-0.305-0.322-0.853-0.182-1.215l0.753-1.901  c0.146-0.362,0.575-0.706,0.962-0.765l2.029-0.296c0.387-0.057,0.897,0.146,1.143,0.453l1.275,1.604  c0.242,0.307,0.322,0.853,0.18,1.215L81.9,55.525c-0.146,0.361-0.576,0.705-0.963,0.763L78.918,56.584z" fill="#2992f3"></path><path d="M88.305,56.025c-0.386,0.058-0.896-0.146-1.141-0.451l-0.643-0.812c-0.242-0.306-0.322-0.853-0.183-1.215l0.382-0.957  c0.143-0.361,0.572-0.706,0.961-0.764l1.022-0.152c0.386-0.058,0.897,0.146,1.144,0.451l0.644,0.812  c0.241,0.306,0.321,0.852,0.179,1.213l-0.383,0.961c-0.145,0.361-0.577,0.705-0.963,0.763L88.305,56.025z" fill="#2992f3"></path><path d="M89.375,65.178c-0.387,0.057-0.898-0.146-1.143-0.451L87.58,63.91c-0.243-0.307-0.324-0.854-0.182-1.215l0.384-0.971  c0.144-0.363,0.575-0.707,0.962-0.766l1.039-0.152c0.386-0.059,0.898,0.146,1.142,0.45l0.648,0.817  c0.241,0.306,0.323,0.854,0.18,1.215l-0.385,0.973c-0.144,0.361-0.576,0.707-0.962,0.764L89.375,65.178z" fill="#2992f3"></path><path d="M81.986,65.5c-0.385,0.057-0.898-0.146-1.141-0.451l-1.021-1.285c-0.242-0.305-0.322-0.851-0.18-1.213l0.604-1.52  c0.145-0.361,0.577-0.704,0.963-0.762l1.615-0.236c0.386-0.057,0.898,0.146,1.142,0.451l1.017,1.281  c0.242,0.307,0.324,0.854,0.182,1.215l-0.602,1.517c-0.145,0.362-0.576,0.706-0.961,0.763L81.986,65.5z" fill="#2992f3"></path><path d="M73.039,65.525c-0.387,0.057-0.898-0.146-1.143-0.451l-1.312-1.645c-0.243-0.308-0.321-0.854-0.181-1.216l0.773-1.942  c0.146-0.362,0.577-0.705,0.963-0.766l2.076-0.311c0.385-0.059,0.898,0.146,1.141,0.451l1.302,1.646  c0.239,0.309,0.319,0.854,0.179,1.217l-0.771,1.945c-0.145,0.359-0.574,0.706-0.961,0.766L73.039,65.525z" fill="#2992f3"></path><path d="M62.279,63.256c-0.385,0.057-0.898-0.146-1.141-0.451l-1.627-2.047c-0.242-0.305-0.322-0.852-0.181-1.213l0.961-2.422  c0.146-0.361,0.577-0.705,0.963-0.762l2.572-0.379c0.386-0.059,0.897,0.146,1.144,0.451l1.617,2.041  c0.242,0.305,0.323,0.852,0.184,1.213l-0.957,2.422c-0.146,0.363-0.576,0.707-0.961,0.764L62.279,63.256z" fill="#2992f3"></path><path d="M51.061,60.678c-0.385,0.057-0.896-0.146-1.141-0.451l-1.862-2.354c-0.242-0.307-0.322-0.854-0.179-1.217l1.104-2.786  c0.144-0.362,0.577-0.706,0.962-0.765l2.968-0.438c0.386-0.059,0.899,0.146,1.142,0.452l1.861,2.346  c0.242,0.308,0.322,0.854,0.18,1.216l-1.104,2.797c-0.145,0.361-0.576,0.707-0.963,0.765L51.061,60.678z" fill="#2992f3"></path><path d="M39.555,60.447c-0.386,0.057-0.899-0.146-1.142-0.452l-2.131-2.687c-0.242-0.309-0.323-0.854-0.18-1.215l1.258-3.185  c0.144-0.362,0.576-0.706,0.962-0.765l3.386-0.502c0.386-0.058,0.9,0.146,1.143,0.451l2.136,2.682  c0.243,0.309,0.324,0.854,0.181,1.217l-1.264,3.188c-0.143,0.361-0.576,0.705-0.962,0.762L39.555,60.447z" fill="#2992f3"></path><path d="M30.843,55.572c-0.385,0.059-0.899-0.145-1.141-0.45l-1.2-1.515c-0.242-0.305-0.322-0.854-0.179-1.215l0.71-1.791  c0.144-0.365,0.577-0.708,0.962-0.764l1.911-0.28c0.386-0.056,0.899,0.147,1.141,0.453l1.193,1.504  c0.242,0.307,0.322,0.854,0.179,1.215l-0.71,1.791c-0.144,0.363-0.577,0.707-0.962,0.767L30.843,55.572z" fill="#2992f3"></path><path d="M17.866,47.334c-0.386,0.057-0.899-0.146-1.142-0.451l-0.93-1.174c-0.242-0.305-0.323-0.852-0.18-1.214l0.548-1.385  c0.144-0.362,0.576-0.706,0.962-0.763l1.477-0.218c0.386-0.057,0.899,0.146,1.142,0.451l0.931,1.173  c0.242,0.305,0.322,0.852,0.178,1.213L20.3,46.353c-0.144,0.362-0.578,0.705-0.963,0.762L17.866,47.334z" fill="#2992f3"></path><path d="M10.571,47.392c-0.385,0.058-0.899-0.145-1.141-0.45l-0.504-0.636c-0.242-0.305-0.323-0.852-0.179-1.214l0.298-0.749  c0.144-0.362,0.577-0.706,0.962-0.764l0.795-0.119c0.385-0.058,0.899,0.145,1.141,0.45l0.504,0.636  c0.242,0.305,0.323,0.852,0.179,1.214l-0.298,0.749c-0.144,0.362-0.577,0.706-0.962,0.764L10.571,47.392z" fill="#2992f3"></path><path d="M22.497,57.299c-0.386,0.057-0.899-0.146-1.141-0.451l-1.442-1.82c-0.242-0.307-0.323-0.854-0.179-1.215l0.856-2.166  c0.144-0.36,0.576-0.707,0.962-0.765l2.297-0.342c0.386-0.057,0.9,0.146,1.142,0.45l1.455,1.828  c0.242,0.306,0.323,0.852,0.179,1.213l-0.862,2.168c-0.144,0.361-0.577,0.705-0.963,0.762L22.497,57.299z" fill="#2992f3"></path><path d="M30.265,65.918c-0.386,0.057-0.899-0.146-1.142-0.451l-1.828-2.301c-0.243-0.305-0.323-0.852-0.18-1.214l1.085-2.736  c0.144-0.362,0.577-0.706,0.962-0.763l2.902-0.43c0.386-0.059,0.899,0.146,1.142,0.451l1.834,2.309  c0.243,0.305,0.323,0.852,0.179,1.213l-1.084,2.732c-0.144,0.358-0.577,0.705-0.963,0.762L30.265,65.918z" fill="#2992f3"></path><path d="M45.742,67.336c-0.386,0.057-0.899-0.146-1.142-0.451l-1.364-1.719c-0.242-0.305-0.322-0.852-0.178-1.213l0.809-2.033  c0.144-0.361,0.578-0.705,0.963-0.762l2.166-0.32c0.386-0.057,0.899,0.146,1.142,0.452l1.357,1.711  c0.242,0.306,0.323,0.853,0.179,1.214l-0.811,2.042c-0.144,0.362-0.577,0.705-0.962,0.763L45.742,67.336z" fill="#2992f3"></path><path d="M37.521,72.689c-0.386,0.058-0.899-0.146-1.142-0.451l-1.651-2.08c-0.242-0.305-0.323-0.852-0.18-1.215l0.975-2.467  c0.144-0.361,0.576-0.705,0.962-0.765l2.625-0.39c0.386-0.059,0.899,0.146,1.141,0.451l1.652,2.084  c0.242,0.308,0.322,0.854,0.178,1.215l-0.979,2.469c-0.144,0.359-0.577,0.704-0.963,0.764L37.521,72.689z" fill="#2992f3"></path><path d="M55.109,70.663c-0.387,0.058-0.899-0.146-1.145-0.451l-1.453-1.836c-0.242-0.306-0.322-0.853-0.181-1.215l0.858-2.173  c0.146-0.361,0.578-0.705,0.965-0.764l2.312-0.346c0.388-0.061,0.899,0.146,1.144,0.451l1.455,1.836  c0.242,0.309,0.324,0.854,0.182,1.215l-0.857,2.174c-0.144,0.36-0.576,0.707-0.961,0.764L55.109,70.663z" fill="#2992f3"></path><path d="M65.691,73.673c-0.385,0.058-0.898-0.146-1.144-0.45l-1.562-1.961c-0.24-0.306-0.321-0.853-0.18-1.215l0.92-2.322  c0.146-0.363,0.576-0.705,0.963-0.763L67.16,66.6c0.386-0.058,0.898,0.146,1.145,0.451l1.559,1.959  c0.242,0.305,0.324,0.852,0.181,1.213l-0.92,2.318c-0.146,0.361-0.577,0.705-0.963,0.764L65.691,73.673z" fill="#2992f3"></path><path d="M76.223,74.8c-0.386,0.058-0.896-0.146-1.141-0.45l-1.02-1.289c-0.242-0.306-0.322-0.853-0.182-1.215l0.604-1.523  c0.145-0.359,0.576-0.702,0.963-0.762l1.621-0.238c0.386-0.057,0.896,0.146,1.142,0.451l1.021,1.285  c0.242,0.305,0.322,0.854,0.182,1.213l-0.604,1.523c-0.146,0.361-0.578,0.705-0.965,0.764L76.223,74.8z" fill="#2992f3"></path><path d="M84.297,73.536c-0.386,0.058-0.898-0.146-1.141-0.451l-0.662-0.84c-0.242-0.306-0.322-0.853-0.18-1.216l0.393-0.995  c0.143-0.362,0.575-0.706,0.961-0.763l1.064-0.158c0.386-0.057,0.896,0.146,1.141,0.453l0.662,0.84  c0.242,0.307,0.322,0.854,0.179,1.216l-0.392,0.989c-0.143,0.363-0.575,0.707-0.961,0.765L84.297,73.536z" fill="#2992f3"></path><path d="M68.172,83.336c-0.386,0.057-0.898-0.146-1.141-0.453l-1.457-1.846c-0.242-0.307-0.322-0.854-0.18-1.217l0.856-2.178  c0.146-0.361,0.575-0.705,0.961-0.765l2.33-0.344c0.388-0.06,0.897,0.146,1.144,0.45l1.461,1.844  c0.242,0.309,0.32,0.854,0.179,1.214l-0.866,2.188c-0.145,0.358-0.577,0.705-0.963,0.762L68.172,83.336z" fill="#2992f3"></path><path d="M77.213,81.197c-0.386,0.058-0.898-0.146-1.141-0.451l-0.108-0.141c-0.241-0.309-0.321-0.854-0.181-1.217l0.062-0.162  c0.141-0.363,0.57-0.707,0.959-0.768l0.186-0.025c0.386-0.06,0.898,0.146,1.139,0.453l0.109,0.139  c0.24,0.307,0.318,0.854,0.176,1.216l-0.066,0.167c-0.145,0.361-0.578,0.705-0.964,0.764L77.213,81.197z" fill="#2992f3"></path><path d="M61.768,89.866c-0.386,0.057-0.896-0.147-1.142-0.453l-1.056-1.33c-0.241-0.306-0.322-0.853-0.18-1.215l0.627-1.582  c0.145-0.362,0.574-0.706,0.963-0.765l1.682-0.248c0.386-0.061,0.898,0.146,1.143,0.449l1.062,1.338  c0.24,0.306,0.32,0.852,0.178,1.213l-0.631,1.586c-0.146,0.361-0.578,0.703-0.964,0.761L61.768,89.866z" fill="#2992f3"></path><path d="M57.359,81.186c-0.385,0.059-0.897-0.146-1.143-0.453l-1.81-2.291c-0.242-0.307-0.322-0.854-0.181-1.215l1.078-2.718  c0.146-0.362,0.575-0.706,0.961-0.764l2.889-0.429c0.387-0.06,0.896,0.146,1.142,0.451l1.812,2.295  c0.242,0.306,0.322,0.853,0.182,1.215l-1.066,2.716c-0.145,0.362-0.576,0.706-0.961,0.763L57.359,81.186z" fill="#2992f3"></path><path d="M47.152,76.859c-0.386,0.059-0.899-0.146-1.142-0.449l-1.363-1.717c-0.242-0.305-0.323-0.854-0.181-1.215l0.806-2.043  c0.143-0.361,0.575-0.705,0.961-0.764l2.167-0.316c0.386-0.059,0.899,0.146,1.142,0.453l1.362,1.717  c0.242,0.307,0.322,0.854,0.18,1.216l-0.803,2.032c-0.143,0.363-0.576,0.707-0.961,0.765L47.152,76.859z" fill="#2992f3"></path><path d="M37.941,81.934c-0.386,0.057-0.899-0.146-1.142-0.451l-1.56-1.967c-0.242-0.306-0.323-0.852-0.179-1.213l0.926-2.332  c0.144-0.361,0.577-0.705,0.963-0.763l2.482-0.369c0.386-0.058,0.899,0.146,1.141,0.451l1.554,1.967  c0.242,0.306,0.322,0.853,0.179,1.216l-0.922,2.334c-0.143,0.362-0.576,0.705-0.961,0.764L37.941,81.934z" fill="#2992f3"></path><path d="M48.91,85.777c-0.386,0.058-0.899-0.146-1.142-0.451l-1.192-1.502c-0.242-0.305-0.323-0.852-0.179-1.213l0.709-1.785  c0.144-0.362,0.577-0.705,0.963-0.762l1.892-0.279c0.386-0.057,0.898,0.146,1.143,0.451l1.191,1.502  c0.242,0.305,0.323,0.852,0.182,1.214l-0.701,1.784c-0.144,0.363-0.573,0.705-0.961,0.763L48.91,85.777z" fill="#2992f3"></path><path d="M54.959,91.357c-0.387,0.059-0.898-0.146-1.143-0.449l-0.588-0.74c-0.242-0.305-0.324-0.852-0.185-1.215l0.349-0.883  c0.144-0.363,0.572-0.707,0.961-0.764l0.938-0.144c0.388-0.06,0.897,0.146,1.144,0.452l0.59,0.742  c0.242,0.309,0.322,0.854,0.179,1.218l-0.349,0.879c-0.146,0.36-0.578,0.706-0.963,0.767L54.959,91.357z" fill="#2992f3"></path><path d="M48.162,91.462c-0.385,0.06-0.899-0.144-1.141-0.448l-0.102-0.129c-0.242-0.306-0.323-0.853-0.179-1.215l0.061-0.15  c0.144-0.36,0.577-0.707,0.962-0.766l0.167-0.025c0.385-0.058,0.898,0.146,1.14,0.451l0.099,0.125  c0.241,0.307,0.321,0.854,0.177,1.215l-0.061,0.154c-0.144,0.361-0.577,0.706-0.962,0.766L48.162,91.462z" fill="#2992f3"></path><path d="M40.25,90.764c-0.385,0.057-0.898-0.146-1.14-0.451l-1.364-1.726c-0.242-0.306-0.322-0.853-0.179-1.215l0.804-2.033  c0.144-0.362,0.576-0.706,0.962-0.764l2.167-0.322c0.386-0.058,0.899,0.146,1.142,0.45l1.363,1.719  c0.242,0.305,0.323,0.852,0.18,1.215l-0.805,2.039c-0.143,0.362-0.576,0.706-0.961,0.764L40.25,90.764z" fill="#2992f3"></path><path d="M29.562,86.156c-0.385,0.059-0.898-0.145-1.14-0.45l-1.108-1.401c-0.242-0.307-0.322-0.854-0.179-1.216l0.653-1.651  c0.143-0.36,0.576-0.705,0.961-0.763l1.766-0.26c0.386-0.058,0.899,0.147,1.142,0.452l1.107,1.395  c0.242,0.305,0.323,0.852,0.18,1.215L32.29,85.13c-0.143,0.362-0.576,0.706-0.961,0.765L29.562,86.156z" fill="#2992f3"></path><path d="M28.192,75.458c-0.386,0.058-0.899-0.146-1.142-0.45l-1.466-1.844c-0.243-0.305-0.323-0.852-0.18-1.214l0.868-2.187  c0.144-0.361,0.577-0.705,0.962-0.765l2.323-0.347c0.386-0.057,0.899,0.146,1.141,0.453l1.457,1.842  c0.242,0.307,0.323,0.855,0.18,1.216l-0.864,2.187c-0.143,0.36-0.576,0.707-0.961,0.764L28.192,75.458z" fill="#2992f3"></path><path d="M22.484,79.715c-0.386,0.057-0.899-0.146-1.141-0.451l-0.903-1.14c-0.242-0.306-0.322-0.853-0.179-1.215l0.534-1.347  c0.144-0.361,0.577-0.705,0.962-0.76l1.431-0.209c0.386-0.059,0.899,0.145,1.142,0.451l0.897,1.133  c0.242,0.307,0.324,0.854,0.181,1.215l-0.53,1.348c-0.143,0.363-0.575,0.707-0.96,0.764L22.484,79.715z" fill="#2992f3"></path><path d="M15.911,75.689c-0.386,0.057-0.898-0.147-1.14-0.455l-0.499-0.633c-0.242-0.309-0.321-0.854-0.178-1.215l0.297-0.75  c0.144-0.361,0.577-0.705,0.962-0.765l0.796-0.119c0.386-0.06,0.899,0.146,1.14,0.453l0.499,0.631c0.241,0.31,0.323,0.854,0.18,1.22  l-0.295,0.754c-0.143,0.36-0.574,0.705-0.96,0.762L15.911,75.689z" fill="#2992f3"></path><path d="M21.107,67.63c-0.386,0.058-0.899-0.146-1.141-0.45l-1.417-1.795c-0.242-0.306-0.322-0.854-0.179-1.215l0.843-2.126  c0.143-0.362,0.576-0.705,0.962-0.763l2.258-0.331c0.386-0.058,0.899,0.147,1.142,0.452l1.421,1.789  c0.243,0.305,0.323,0.852,0.18,1.213l-0.842,2.125c-0.144,0.363-0.577,0.707-0.962,0.765L21.107,67.63z" fill="#2992f3"></path><path d="M15.242,57.396c-0.386,0.058-0.899-0.146-1.142-0.451l-0.752-0.948c-0.242-0.306-0.323-0.853-0.179-1.216l0.448-1.129  c0.144-0.361,0.577-0.705,0.962-0.762l1.202-0.178c0.386-0.059,0.899,0.146,1.14,0.454l0.749,0.944  c0.241,0.31,0.322,0.855,0.179,1.219l-0.443,1.121c-0.143,0.359-0.576,0.705-0.961,0.764L15.242,57.396z" fill="#2992f3"></path><path d="M9.194,58.27c-0.386,0.06-0.899-0.146-1.141-0.451L7.62,57.27c-0.242-0.306-0.322-0.852-0.178-1.213l0.256-0.646  c0.144-0.362,0.578-0.706,0.963-0.765l0.692-0.104c0.385-0.06,0.898,0.146,1.14,0.45l0.433,0.549  c0.242,0.309,0.323,0.854,0.18,1.215l-0.255,0.646c-0.143,0.361-0.575,0.705-0.961,0.765L9.194,58.27z" fill="#2992f3"></path><path d="M13.281,66.947c-0.386,0.059-0.9-0.145-1.142-0.449l-0.726-0.912c-0.242-0.305-0.323-0.852-0.178-1.213l0.433-1.084  c0.145-0.361,0.578-0.705,0.963-0.764l1.144-0.17c0.385-0.061,0.899,0.146,1.141,0.449l0.727,0.918  c0.242,0.305,0.323,0.85,0.179,1.213l-0.429,1.078c-0.144,0.36-0.577,0.705-0.963,0.764L13.281,66.947z" fill="#2992f3"></path></g></g></g></g></g></svg>