<?xml version="1.0" standalone="no"?>
<!DOCTYPE svg PUBLIC "-//W3C//DTD SVG 20010904//EN"
 "http://www.w3.org/TR/2001/REC-SVG-20010904/DTD/svg10.dtd">
<svg version="1.0" xmlns="http://www.w3.org/2000/svg"
 width="1140.000000pt" height="1140.000000pt" viewBox="0 0 1140.000000 1140.000000"
 preserveAspectRatio="xMidYMid meet">
<metadata>
Created by potrace 1.15, written by Peter Selinger 2001-2017
</metadata>
<g transform="translate(0.000000,1140.000000) scale(0.100000,-0.100000)"
fill="#000000" stroke="none">
<path d="M5700 11241 c-5 -11 -10 -36 -10 -55 0 -33 -2 -36 -29 -36 -48 0 -52
-54 -5 -66 30 -8 31 -32 2 -36 -32 -5 -33 -26 -2 -40 l27 -12 -7 -151 c-4 -82
-10 -151 -14 -153 -4 -2 -275 -103 -602 -225 l-595 -222 -11 104 c-10 89 -15
107 -34 123 -25 21 -38 22 -75 8 -35 -13 -45 -45 -53 -182 l-7 -120 -205 -78
c-113 -42 -239 -92 -282 -109 -42 -17 -81 -31 -87 -31 -20 0 -115 -51 -135
-73 -27 -28 -12 -47 55 -69 30 -10 177 -60 326 -111 l273 -92 0 -197 0 -198
-54 0 c-29 0 -74 -3 -99 -6 -50 -7 -49 -7 -62 49 -9 43 -47 34 -58 -14 l-8
-36 -67 -7 c-116 -10 -132 -9 -132 15 0 31 -19 59 -39 59 -21 0 -31 -19 -31
-56 0 -26 -10 -30 -92 -37 l-47 -4 -14 41 c-11 33 -19 42 -45 47 -27 6 -32 3
-44 -25 -7 -17 -13 -71 -13 -121 0 -160 16 -419 28 -433 16 -20 191 -101 267
-123 36 -11 90 -28 120 -38 l55 -17 3 -99 c4 -136 7 -139 142 -144 58 -2 106
-4 108 -6 2 -2 -4 -40 -12 -86 -26 -142 -64 -456 -100 -844 -76 -801 -118
-1240 -161 -1705 -24 -267 -47 -505 -50 -530 -2 -25 -45 -479 -95 -1010 -50
-531 -106 -1130 -125 -1332 -19 -202 -35 -370 -35 -373 0 -15 -54 -2 -71 18
l-19 22 6 -28 c3 -15 2 -27 -3 -27 -6 0 -13 31 -16 68 -4 37 -16 92 -27 122
l-20 55 5 -75 5 -75 -30 50 c-16 28 -43 66 -59 85 l-31 35 16 -45 c8 -25 33
-84 55 -131 33 -72 38 -91 30 -112 -9 -24 -13 -25 -39 -16 -16 5 -55 11 -88
12 -55 2 -59 0 -58 -20 0 -19 -2 -20 -25 -11 -26 11 -208 28 -333 31 -57 2
-71 -1 -88 -19 -25 -24 -34 -93 -18 -142 7 -24 7 -37 -3 -48 -15 -18 -22 -141
-9 -149 13 -8 13 -67 1 -114 -5 -20 -15 -69 -21 -109 -10 -58 -17 -76 -36 -88
-22 -15 -26 -14 -73 20 -62 46 -172 163 -230 246 -40 56 -42 62 -20 55 39 -12
45 -17 94 -83 43 -56 101 -112 119 -112 3 0 -20 39 -51 86 l-58 87 23 15 c35
23 27 44 -42 110 -59 57 -61 61 -33 55 17 -3 44 -22 60 -40 35 -39 122 -93
152 -93 15 0 11 7 -20 32 -22 18 -57 49 -77 70 -37 38 -38 38 -18 58 20 20 20
20 78 -11 l57 -32 -77 79 c-63 65 -74 81 -63 91 20 18 84 18 134 -1 24 -9 54
-16 65 -14 41 6 20 33 -61 78 -45 25 -84 47 -87 50 -2 3 23 3 56 2 94 -6 89
10 -14 52 -121 48 -136 62 -223 206 -5 8 13 -2 40 -21 88 -64 175 -96 218 -80
18 7 7 15 -68 54 -164 85 -219 150 -276 321 -29 88 -24 86 26 -11 112 -219
252 -337 331 -278 18 13 17 14 -17 15 -79 0 -175 111 -277 318 -56 113 -56
114 -53 196 2 64 -2 95 -19 139 -12 31 -19 61 -16 66 3 5 12 36 20 70 14 61
14 62 -10 88 -13 14 -24 34 -24 43 0 21 -29 82 -44 92 -6 4 -18 8 -27 8 -13 0
-15 -18 -15 -137 1 -131 -1 -143 -33 -238 -60 -178 -189 -475 -206 -475 -3 0
5 24 17 53 87 213 145 384 134 394 -11 11 -54 -75 -131 -263 -47 -115 -91
-220 -98 -233 -21 -42 -34 -35 -41 22 -10 81 14 166 70 244 28 39 -9 29 -50
-13 -51 -53 -70 -118 -64 -225 6 -101 2 -108 -71 -134 -90 -31 -210 -14 -245
36 -13 19 -16 20 -16 6 0 -9 12 -31 28 -48 34 -38 108 -60 173 -50 42 7 46 6
41 -12 -4 -17 -12 -19 -69 -15 -62 4 -63 4 -45 -15 11 -10 39 -21 63 -24 41
-5 88 -36 71 -46 -4 -3 -49 -8 -99 -12 -95 -7 -114 -18 -67 -36 25 -9 158 2
202 18 12 4 14 3 7 -5 -5 -6 -46 -23 -90 -37 -79 -27 -146 -30 -199 -9 -31 12
-10 -14 27 -32 40 -21 132 -21 182 1 21 8 40 14 42 12 8 -9 -118 -67 -166 -78
-28 -6 -49 -14 -46 -19 10 -17 56 -20 97 -5 37 12 44 12 51 0 12 -23 31 -18
81 20 26 19 48 35 51 35 10 0 -59 -102 -76 -113 -22 -14 -26 -47 -6 -47 16 0
43 29 86 93 18 27 35 46 37 44 3 -2 -14 -64 -38 -137 -50 -159 -63 -175 -216
-252 -70 -35 -99 -54 -90 -59 21 -14 100 -10 154 6 27 8 50 15 52 15 11 0 -4
-53 -33 -109 -37 -75 -57 -88 -115 -71 -19 5 -35 8 -37 6 -10 -9 12 -36 43
-52 19 -10 33 -21 32 -24 -56 -110 -56 -110 -101 -110 -24 0 -59 8 -79 19
l-37 18 16 -23 c8 -13 37 -32 64 -41 54 -19 59 -27 30 -43 -25 -13 -72 -13
-108 0 l-28 10 23 -20 c13 -10 39 -22 59 -26 28 -5 34 -10 30 -25 -7 -25 0
-24 52 11 54 37 74 39 62 8 -34 -92 -14 -99 25 -9 15 33 39 68 60 84 32 26 30
22 -29 -70 -56 -86 -67 -98 -91 -96 -28 2 -33 -6 -15 -24 8 -8 1 -14 -27 -22
-22 -6 -48 -11 -59 -11 -31 0 -32 -51 -1 -81 20 -19 22 -27 13 -46 -8 -18 -6
-27 9 -44 21 -23 21 -23 -61 -66 -27 -14 -80 -43 -117 -64 -48 -28 -78 -39
-107 -39 -28 0 -48 -7 -61 -20 -11 -11 -26 -17 -33 -14 -29 11 -40 -23 -28
-83 25 -124 85 -183 299 -291 227 -115 352 -148 882 -232 140 -22 296 -47 345
-55 275 -44 1318 -165 1630 -190 489 -38 1102 -60 1435 -52 278 8 1303 62
1475 79 66 6 221 12 345 13 209 1 232 3 325 28 55 15 107 25 116 22 80 -26
334 -26 326 -1 -2 6 15 22 37 37 23 14 49 35 59 47 l19 20 53 -23 c109 -49
265 -71 305 -45 13 9 10 14 -15 35 l-30 25 43 0 c24 0 63 5 87 11 36 9 57 7
126 -10 46 -12 103 -21 128 -20 l46 0 -85 44 c-69 36 -80 44 -57 44 18 1 36
-7 46 -21 39 -47 72 18 35 70 -9 13 -14 24 -13 26 2 1 51 13 109 25 226 49
601 164 739 227 57 26 77 31 92 23 25 -13 42 -2 36 22 -3 12 4 24 19 34 24 15
27 15 55 -9 38 -32 79 -33 107 -3 26 28 28 57 5 100 -9 18 -16 42 -14 54 2 22
-31 53 -59 53 -8 0 -42 23 -75 50 -72 60 -118 66 -179 25 -41 -28 -150 -49
-177 -34 -8 4 -63 41 -120 81 -58 40 -134 88 -169 107 -108 56 -127 74 -122
113 2 23 -4 44 -21 70 l-25 36 29 789 c123 3375 159 4377 159 4417 0 40 3 48
25 56 29 11 34 46 8 53 -14 3 -10 8 15 18 39 16 39 43 0 47 -15 2 -28 11 -31
22 -2 10 -16 26 -31 35 -33 22 -73 13 -88 -20 -10 -22 -16 -24 -46 -19 -31 6
-34 5 -29 -10 4 -10 7 -19 7 -22 0 -2 17 -12 38 -21 l37 -17 -43 -4 c-68 -5
-68 -57 0 -64 46 -4 44 -22 -4 -57 -74 -55 -141 -75 -248 -75 -81 0 -109 5
-190 33 -169 57 -292 140 -460 310 -151 153 -258 315 -374 569 -92 199 -138
328 -247 682 l-96 315 96 12 c53 6 99 12 103 12 4 1 15 12 24 26 15 23 14 27
-9 72 -24 46 -26 59 -31 271 -4 123 -11 246 -17 273 -9 41 -14 49 -34 49 -26
0 -35 -17 -35 -67 0 -45 -23 -39 -30 8 -6 41 -34 47 -38 7 l-3 -26 -97 32 -97
33 -8 51 c-7 41 -12 52 -27 52 -10 0 -22 -10 -26 -22 -6 -20 -8 -19 -27 18
-22 43 -70 180 -82 232 l-7 32 226 0 c236 0 270 5 282 44 12 34 4 90 -14 107
-21 21 -1626 877 -1702 908 -30 13 -112 53 -183 88 l-127 66 2 111 c1 61 -2
126 -6 144 -7 32 -7 32 29 32 23 0 38 5 42 16 7 20 -13 34 -49 34 -16 0 -28 5
-28 11 0 7 9 9 21 6 12 -3 32 -1 45 5 30 14 18 32 -33 49 l-35 11 6 55 c7 57
-3 83 -30 83 -7 0 -18 -9 -24 -19z m978 -1750 l3 -131 -33 7 c-18 3 -35 8 -38
10 -8 7 0 223 10 249 10 25 12 25 33 11 21 -13 22 -22 25 -146z m588 -92 c13
-51 39 -126 58 -166 19 -40 34 -73 32 -73 -4 0 -137 46 -159 55 -16 7 -17 22
-15 155 l3 147 29 -12 c26 -11 31 -22 52 -106z m-143 89 c4 -13 -3 -240 -8
-246 -1 -2 -14 0 -29 4 l-26 6 0 124 0 124 29 0 c16 0 31 -6 34 -12z m-3274
-537 l-3 -149 -27 -4 -27 -4 -11 105 c-7 58 -14 127 -18 154 l-6 47 47 0 47 0
-2 -149z m259 78 c20 -8 22 -15 22 -88 0 -43 3 -93 6 -110 l7 -31 -47 0 c-46
0 -46 0 -46 33 0 19 -3 76 -7 127 l-6 92 24 -7 c13 -4 34 -11 47 -16z m3540
-257 c2 -143 1 -153 -15 -148 -10 3 -30 8 -45 12 l-28 6 0 145 0 144 43 -3 42
-3 3 -153z m18 -602 c92 -322 159 -516 240 -701 155 -352 307 -565 540 -758
157 -130 319 -208 483 -231 112 -16 214 8 310 71 l34 23 -7 -75 c-11 -131 -44
-959 -115 -2934 -70 -1928 -78 -2135 -84 -2142 -7 -7 -87 27 -124 51 -21 15
-44 26 -51 26 -13 0 -61 48 -62 62 0 3 15 16 33 28 l32 22 -47 -6 c-40 -5 -49
-3 -58 14 -16 29 -13 37 31 85 36 39 39 45 21 45 -12 0 -37 -13 -55 -30 l-35
-30 -12 30 c-8 20 -10 53 -5 104 6 68 11 81 61 155 73 111 72 167 -6 185 -26
7 -90 -25 -90 -44 0 -5 -5 -10 -11 -10 -6 0 -29 -13 -52 -29 -26 -17 -68 -33
-111 -41 -77 -14 -81 -12 -91 50 -10 61 -26 114 -43 140 -12 17 -17 48 -17 97
l-1 72 40 -76 c40 -74 68 -105 82 -90 12 11 -13 135 -51 251 -19 60 -33 111
-32 113 2 2 12 -6 22 -17 16 -17 45 -28 45 -16 0 16 -47 151 -84 239 -39 93
-78 208 -92 272 -2 11 8 -2 22 -30 23 -46 25 -47 21 -17 l-4 32 21 -22 21 -23
3 24 c5 34 -26 155 -64 247 l-33 81 -1 259 c-1 142 -1 265 0 272 0 6 6 12 13
12 8 0 19 12 26 27 10 23 10 25 -2 14 -19 -15 -28 4 -17 34 4 11 4 29 0 40 -7
19 -9 18 -37 -12 -30 -31 -55 -98 -52 -138 1 -11 -3 -55 -10 -98 -6 -43 -11
-114 -11 -156 0 -59 -4 -82 -16 -91 -11 -10 -15 -30 -13 -79 2 -62 -2 -74 -60
-196 -34 -71 -73 -151 -86 -176 -58 -109 -56 -102 -41 -124 19 -28 74 -24 100
7 l19 23 -6 -25 c-3 -14 -11 -57 -18 -97 -11 -64 -14 -71 -30 -63 -15 9 -16 7
-6 -25 8 -27 7 -48 -7 -97 -26 -93 -76 -208 -91 -208 -7 0 -32 7 -55 15 -50
18 -136 20 -146 4 -10 -17 -24 10 -24 47 0 25 11 41 53 80 28 27 66 59 82 71
40 29 12 29 -40 0 l-40 -22 -28 59 -28 59 27 40 c43 65 105 127 178 178 76 54
66 65 -23 24 -69 -32 -123 -76 -172 -138 -22 -27 -39 -46 -39 -43 0 3 -25 255
-55 559 -30 303 -79 802 -109 1107 -99 1003 -266 2687 -307 3100 -22 223 -44
432 -49 465 -6 33 -10 65 -10 70 0 14 138 35 231 35 45 0 80 5 87 12 8 8 12
51 12 126 l0 113 52 -3 51 -3 73 -255z m-2723 72 l48 -7 -82 -117 -82 -117
-58 40 c-32 22 -121 79 -197 127 l-137 87 230 -3 c126 -2 252 -6 278 -10z
m1002 -18 c158 -4 244 -10 235 -16 -8 -5 -114 -70 -235 -144 -121 -75 -225
-138 -231 -140 -5 -3 -62 32 -125 78 -63 45 -166 118 -229 161 l-115 78 225
-5 c124 -4 338 -9 475 -12z m-1458 -325 c51 -129 93 -238 93 -242 0 -5 -84
-133 -187 -284 -126 -185 -189 -269 -191 -256 -3 18 80 921 94 1035 l6 46 46
-33 c45 -32 48 -38 139 -266z m744 209 c53 -41 152 -114 220 -163 68 -48 128
-91 132 -95 9 -8 -77 -65 -194 -129 l-75 -40 -97 65 -97 64 0 104 c0 56 -3
145 -7 197 -5 80 -4 92 8 83 8 -6 57 -45 110 -86z m1797 77 c2 -1 -10 -25 -27
-53 -16 -27 -58 -127 -92 -221 -35 -94 -66 -171 -69 -171 -6 1 -122 272 -118
275 2 2 57 44 123 94 106 80 124 90 150 85 17 -4 31 -8 33 -9z m-594 -47 c3
-29 6 -81 6 -115 l0 -63 -182 -136 c-101 -75 -188 -141 -194 -145 -7 -6 -55
22 -126 73 l-115 82 121 75 c66 40 148 86 181 101 33 16 112 62 175 103 63 42
118 76 121 76 3 1 9 -23 13 -51z m-1726 -213 c23 -15 42 -29 42 -31 0 -8 -114
-164 -120 -164 -6 0 -130 308 -130 323 0 6 77 -41 208 -128z m2018 -143 l70
-177 -66 -187 -66 -186 -27 20 -27 20 0 326 c0 289 2 327 17 344 9 10 19 18
23 18 3 0 37 -80 76 -178z m379 -307 c25 -253 44 -465 43 -472 -2 -8 -55 113
-118 268 -63 156 -114 287 -112 293 10 36 137 375 139 372 2 -1 23 -209 48
-461z m-2205 323 l50 -33 0 -95 c0 -52 -3 -125 -6 -161 l-7 -66 -63 -38 c-35
-20 -67 -41 -70 -46 -12 -20 -22 -4 -73 114 l-53 123 83 117 c45 64 84 117 86
117 2 0 26 -15 53 -32z m1548 -303 l-3 -106 -135 96 c-74 53 -135 101 -135
106 0 6 61 57 135 113 l135 104 3 -104 c1 -57 1 -151 0 -209z m-626 184 c62
-44 114 -84 116 -88 3 -8 -209 -171 -222 -171 -10 0 -266 172 -266 179 1 5
249 161 257 161 1 0 53 -36 115 -81z m-1149 -263 c20 -57 37 -108 37 -113 -1
-8 -433 -283 -438 -278 -4 4 351 495 358 495 3 0 22 -47 43 -104z m784 13 c76
-49 138 -94 138 -99 0 -4 -94 -79 -210 -165 -115 -87 -221 -168 -236 -181 -14
-13 -28 -24 -32 -24 -4 0 -7 98 -7 218 l0 217 103 62 c56 35 103 63 104 63 1
0 64 -41 140 -91z m804 -65 l186 -133 7 -147 c4 -80 5 -148 3 -150 -2 -2 -144
89 -315 202 l-312 206 111 84 c62 46 117 81 123 77 6 -4 95 -66 197 -139z
m687 -139 c44 -110 88 -218 97 -239 l17 -40 -34 25 c-18 14 -85 63 -149 108
l-116 83 51 133 c28 74 51 133 52 132 1 -1 38 -92 82 -202z m-2010 -167 l-3
-83 -49 123 c-26 68 -46 126 -43 128 3 3 24 18 48 33 l44 27 3 -72 c2 -40 2
-110 0 -156z m1134 -34 c189 -124 347 -230 353 -235 5 -5 -258 -9 -658 -9
-734 0 -718 -2 -614 58 28 17 165 116 302 221 138 104 256 190 262 190 7 1
167 -101 355 -225z m-1237 -34 c37 -96 72 -183 77 -192 8 -17 -12 -18 -367
-18 -336 0 -375 2 -375 16 0 9 10 24 23 35 20 18 212 136 247 152 8 4 83 49
165 101 83 51 153 91 156 87 3 -3 37 -85 74 -181z m2107 -113 c197 -141 225
-163 216 -172 -3 -4 -457 33 -494 41 -16 3 -23 13 -27 46 -5 36 1 61 34 145
27 68 45 100 53 96 6 -4 104 -74 218 -156z m-597 -257 c-18 -20 -31 -20 -632
-20 -606 0 -613 0 -613 20 0 20 7 20 632 20 630 0 631 0 613 -20z m-1970 -55
c227 -28 479 -55 517 -55 35 0 38 -2 38 -30 0 -20 -27 -72 -84 -162 -47 -73
-90 -141 -98 -151 -12 -16 -35 0 -283 193 -148 116 -274 216 -280 222 -7 7 3
8 30 4 22 -3 94 -13 160 -21z m1818 -48 c7 -2 -486 -397 -505 -405 -4 -2 -103
72 -220 165 -238 189 -272 214 -314 236 -26 14 20 15 501 10 292 -2 533 -5
538 -6z m291 -149 c3 -84 9 -209 12 -278 l6 -125 -151 -128 -151 -128 -118 93
c-65 51 -161 124 -213 162 l-96 70 306 243 c299 237 307 242 352 243 l46 0 7
-152z m644 137 c1 -1 -72 -66 -163 -144 l-165 -141 -72 150 -73 150 235 -6
c129 -4 236 -8 238 -9z m-2902 -103 c39 -32 57 -56 74 -99 13 -32 68 -158 122
-281 55 -123 97 -230 94 -238 -3 -8 -75 -131 -160 -272 -84 -141 -177 -300
-206 -352 -30 -52 -78 -138 -107 -190 -29 -52 -53 -88 -53 -80 0 27 141 1534
146 1559 4 21 7 22 22 9 9 -8 40 -33 68 -56z m1227 -247 c75 -60 137 -112 137
-116 0 -8 -325 -268 -344 -275 -7 -3 -45 21 -85 52 l-73 57 6 51 c3 28 6 156
6 284 l0 233 108 -89 c59 -48 169 -137 245 -197z m1807 -280 c17 -198 42 -466
55 -595 13 -129 23 -236 21 -237 -5 -5 -276 601 -276 618 0 9 34 154 75 320
41 167 76 312 76 324 3 53 21 -102 49 -430z m-180 390 c-6 -15 -31 -109 -56
-209 -24 -99 -47 -187 -50 -195 -5 -17 -116 217 -112 237 3 12 220 202 226
197 1 -1 -2 -15 -8 -30z m-2533 -114 l131 -103 -46 -79 c-26 -43 -50 -79 -53
-79 -3 0 -46 86 -97 191 -50 105 -86 187 -79 182 6 -5 71 -56 144 -112z m2319
-295 l68 -158 -59 -232 c-32 -127 -60 -233 -61 -235 -4 -4 -82 48 -89 59 -3 4
-11 131 -20 281 -8 151 -17 299 -19 329 l-4 55 51 43 c36 29 53 38 58 30 4 -7
37 -84 75 -172z m-1946 -176 l0 -178 -57 -46 c-32 -25 -60 -42 -64 -38 -9 11
-149 313 -149 322 0 5 30 58 66 119 l66 110 69 -56 69 -55 0 -178z m896 179
c65 -56 156 -131 201 -167 46 -36 83 -66 83 -68 0 -1 -74 -65 -165 -143 l-165
-141 -217 170 c-120 94 -217 173 -216 176 5 11 339 273 349 273 6 1 64 -45
130 -100z m704 -169 c4 -3 10 -60 12 -127 3 -107 1 -120 -12 -109 -12 10 -159
128 -179 143 -3 2 33 42 80 89 l84 85 3 -38 c2 -21 7 -40 12 -43z m-1902 -97
c11 -27 40 -92 65 -145 l46 -97 -307 -244 c-169 -133 -313 -246 -320 -251 -8
-5 4 18 26 50 69 103 245 383 353 561 57 95 107 173 110 173 4 0 15 -21 27
-47z m835 -149 c116 -92 216 -170 220 -174 4 -4 -74 -79 -175 -166 -101 -87
-237 -208 -302 -269 l-119 -110 6 220 c4 121 7 294 7 385 l0 165 73 57 c39 31
73 57 75 57 1 1 98 -74 215 -165z m933 -45 c71 -56 135 -108 143 -115 11 -10
17 -75 26 -286 7 -150 11 -274 10 -276 -1 -1 -149 113 -329 254 -180 141 -324
260 -319 264 90 85 319 270 328 266 7 -2 71 -51 141 -107z m733 -125 c50 -116
113 -262 141 -324 28 -62 49 -114 47 -116 -4 -5 -382 297 -381 304 6 47 90
360 95 354 4 -4 48 -102 98 -218z m-2273 -169 l64 -134 0 -166 0 -165 -447 0
c-245 0 -443 3 -439 8 21 21 742 591 749 591 5 1 37 -60 73 -134z m1290 -196
c170 -133 316 -247 324 -255 12 -12 -78 -14 -615 -13 l-630 0 43 37 c24 20
157 135 295 254 139 119 257 217 263 217 7 1 151 -108 320 -240z m936 -55 c95
-76 176 -140 181 -144 4 -3 -52 -14 -125 -24 -73 -9 -176 -23 -228 -30 -52 -7
-96 -12 -98 -11 -6 5 83 345 90 345 4 0 86 -61 180 -136z m-2945 -373 c174
-39 260 -53 373 -62 138 -10 303 -34 346 -49 l32 -11 -91 -160 c-50 -87 -95
-159 -99 -159 -6 0 -523 332 -695 447 -16 10 -14 12 14 12 17 1 71 -8 120 -18z
m2208 -120 c-6 -4 -162 -129 -349 -276 l-338 -267 -51 49 c-28 26 -152 146
-274 266 -122 119 -227 217 -233 217 -5 0 -10 5 -10 10 0 7 217 10 632 10 359
0 628 -4 623 -9z m840 0 c-6 -5 -44 -37 -85 -71 -41 -35 -83 -70 -93 -79 -21
-18 -15 -25 -79 92 l-37 67 151 0 c87 0 148 -4 143 -9z m-591 -63 c3 -35 8
-144 12 -244 l6 -180 -208 -179 c-115 -98 -236 -202 -269 -231 l-60 -52 -157
151 -158 152 408 322 c224 177 410 322 413 322 4 1 9 -27 13 -61z m630 -215
c-35 -108 -65 -197 -67 -199 -1 -1 -26 42 -55 96 l-53 99 118 101 c65 55 118
100 119 100 1 0 -27 -88 -62 -197z m-3051 -281 l188 -362 -293 -511 c-161
-280 -294 -503 -296 -495 -3 14 12 181 73 831 14 143 38 406 55 585 16 179 33
345 36 370 l6 44 21 -49 c12 -28 106 -213 210 -413z m192 247 c105 -69 204
-133 221 -144 l32 -20 -84 -144 c-46 -79 -87 -148 -91 -152 -5 -5 -83 135
-174 310 -159 307 -164 318 -130 296 20 -12 122 -78 226 -146z m1182 -313 c-1
-4 -41 -38 -87 -75 l-85 -67 -147 95 -148 96 0 135 c0 74 3 165 6 202 l7 67
228 -222 c126 -122 228 -226 226 -231z m1922 89 c18 -181 38 -373 46 -425 19
-133 28 -258 17 -240 -5 8 -66 124 -135 257 l-127 242 78 255 c42 140 80 252
83 248 3 -4 20 -155 38 -337z m-437 40 c22 -44 49 -90 60 -102 l20 -22 -70
-223 c-39 -123 -92 -293 -117 -378 -44 -144 -65 -196 -65 -159 0 8 -11 212
-25 453 -14 242 -23 441 -21 444 3 2 36 31 73 62 l68 58 18 -26 c10 -15 36
-63 59 -107z m-2211 -112 l89 -58 0 -235 0 -235 -103 -81 -103 -81 -97 187
-97 187 106 187 c59 102 109 186 111 186 2 0 45 -26 94 -57z m1814 -379 c8
-181 17 -376 20 -433 l6 -103 -246 238 c-135 131 -244 243 -242 247 3 11 441
387 445 383 1 -2 9 -151 17 -332z m-816 107 c83 -79 151 -147 151 -151 0 -4
-23 -26 -50 -49 l-51 -43 -189 123 c-105 68 -190 127 -190 131 0 9 163 138
171 135 4 -1 75 -67 158 -146z m-641 40 c28 -18 52 -34 52 -36 0 -2 -34 -31
-75 -65 l-75 -61 0 112 0 111 23 -14 c12 -9 46 -30 75 -47z m2260 -391 l131
-255 15 -155 c9 -85 19 -177 22 -203 l6 -49 -38 24 c-22 14 -48 28 -59 32 -18
6 -17 8 10 26 36 24 25 26 -21 4 -27 -13 -39 -14 -69 -4 -37 12 -41 20 -25 51
15 27 -2 24 -30 -6 -13 -14 -34 -25 -47 -25 -20 0 -23 5 -23 34 0 18 11 71 24
117 14 46 23 85 21 87 -2 2 -15 -12 -29 -31 -33 -43 -56 -109 -56 -159 l0 -40
-72 7 c-40 4 -75 9 -77 11 -2 1 7 17 19 33 33 47 -16 36 -72 -16 -33 -31 -125
-47 -115 -20 6 15 213 705 257 856 l22 74 37 -69 c21 -38 96 -184 169 -324z
m-1870 135 c100 -65 182 -121 182 -124 0 -3 -37 -38 -82 -76 -101 -85 -279
-246 -329 -298 -36 -37 -81 -58 -150 -71 -19 -3 -51 -17 -69 -31 -19 -14 -38
-25 -42 -25 -4 0 -8 118 -8 263 l0 262 147 117 c85 68 152 114 158 109 5 -4
92 -61 193 -126z m-1049 -126 l81 -157 -122 -98 c-306 -248 -513 -412 -516
-409 -2 2 85 158 194 347 268 468 275 480 278 476 2 -2 40 -73 85 -159z m1906
-249 c22 -24 -1 -12 -90 45 -66 43 -173 112 -238 154 l-117 76 42 36 43 37
165 -158 c91 -87 179 -173 195 -190z m-178 -67 c208 -135 388 -248 401 -251
19 -4 22 -10 22 -54 l0 -51 -42 7 c-23 4 -44 8 -46 10 -2 2 4 20 12 40 l15 37
-30 -22 c-17 -12 -33 -28 -36 -35 -7 -19 -53 -18 -53 1 0 11 -7 14 -22 10 -13
-3 -29 -1 -37 4 -12 8 -13 14 -3 37 17 37 10 39 -26 9 -28 -23 -34 -25 -74
-15 -24 5 -95 14 -158 19 -369 31 -427 39 -552 76 -44 12 -58 21 -58 35 0 10
-14 32 -31 49 l-31 32 28 22 c45 35 255 211 299 250 22 20 41 36 42 37 1 0
172 -111 380 -247z m-1349 -45 l-3 -82 -58 112 c-32 62 -57 117 -55 122 2 6
28 30 58 54 l55 44 3 -84 c1 -47 1 -122 0 -166z m-160 -63 c35 -68 64 -127 64
-131 -1 -4 -41 -20 -91 -35 -102 -30 -97 -39 -46 75 14 32 24 63 22 70 -5 15
-72 -79 -99 -141 -19 -43 -29 -53 -59 -62 -20 -6 -41 -11 -46 -11 -5 0 -17 34
-27 75 -32 136 -45 93 -23 -78 2 -16 -20 -27 -123 -63 -69 -24 -127 -44 -130
-44 -3 1 -17 11 -33 23 l-27 23 237 187 c131 102 252 198 268 211 17 14 35 25
40 26 6 0 39 -56 73 -125z"/>
</g>
</svg>
